<svg viewBox="-2 -2 28 24" xmlns="http://www.w3.org/2000/svg" width="28" height="24" role="img" aria-roledescription="floorplan"><defs>
    <marker id="arrowhead" markerWidth="10" markerHeight="7" refX="9" refY="3.5" orient="auto">
      <polygon points="0 0, 10 3.5, 0 7" fill="#666" />
    </marker>
  </defs><style>
    /* Floor background */
    .floor-background {
      fill: #eed;
      stroke: #000;
      stroke-width: 0.1;
    }

    /* Room container */
    .room {
      /* Room styling handled by walls */
    }

    /* Wall styling */
    .wall {
      fill: #000;
      stroke: #000;
      stroke-width: 0.05;
    }

    /* Door styling */
    .door {
      fill: #fff;
      stroke: #000;
      stroke-width: 0.05;
    }

    /* Window styling */
    .window {
      fill: #fff;
      stroke: #000;
      stroke-width: 0.01;
    }

    /* Text styling */
    .room-name {
      fill: #000;
      font-family: Arial, sans-serif;
      font-size: 0.8;
    }

    .room-label {
      fill: #000;
      font-family: Arial, sans-serif;
      font-size: 0.8;
    }

    .room-size {
      fill: #666;
      font-family: Arial, sans-serif;
      font-size: 0.7;
    }
  </style><g class="floorplan" aria-label="Floor: GroundFloor"><rect x="0" y="0" 
    width="24" height="20" 
    class="floor-background" fill="#eed" stroke="black" stroke-width="0.1" /><g class="room" data-room="Kitchen"><rect x="0" y="0" width="10" height="8" 
    class="room-background" fill="#E0E0E0" stroke="none" /><rect x="0" y="0" width="10" height="0.2" 
      class="wall" fill="#000000" stroke="#000000" stroke-width="0.05" /><rect x="1" y="0.05" width="8" height="0.1" 
    class="window" fill="white" stroke="black" stroke-width="0.01" data-type="window" data-direction="top" /><rect x="9.8" y="0" width="0.2" height="8" 
      class="wall" fill="#000000" stroke="#000000" stroke-width="0.05" /><rect x="0" y="7.8" width="10" height="0.2" 
      class="wall" fill="#000000" stroke="#000000" stroke-width="0.05" /><rect x="0" y="0" width="0.2" height="8" 
      class="wall" fill="#000000" stroke="#000000" stroke-width="0.05" /></g><g class="room" data-room="Bath"><rect x="0" y="8" width="10" height="7" 
    class="room-background" fill="#E0E0E0" stroke="none" /><rect x="0" y="8" width="10" height="0.2" 
      class="wall" fill="#000000" stroke="#000000" stroke-width="0.05" /><rect x="9.8" y="8" width="0.2" height="7" 
      class="wall" fill="#000000" stroke="#000000" stroke-width="0.05" /><rect x="0" y="14.8" width="10" height="0.2" 
      class="wall" fill="#000000" stroke="#000000" stroke-width="0.05" /><rect x="0" y="8" width="0.2" height="7" 
      class="wall" fill="#000000" stroke="#000000" stroke-width="0.05" /><rect x="0.05" y="8.7" width="0.1" height="5.6000000000000005" 
    class="window" fill="white" stroke="black" stroke-width="0.01" data-type="window" data-direction="left" /></g><g class="room" data-room="Entry"><rect x="0" y="15" width="10" height="5" 
    class="room-background" fill="#E0E0E0" stroke="none" /><rect x="0" y="15" width="10" height="0.2" 
      class="wall" fill="#000000" stroke="#000000" stroke-width="0.05" /><rect x="9.8" y="15" width="0.2" height="5" 
      class="wall" fill="#000000" stroke="#000000" stroke-width="0.05" /><rect x="0" y="19.8" width="10" height="0.2" 
      class="wall" fill="#000000" stroke="#000000" stroke-width="0.05" /><rect x="0" y="15" width="0.2" height="5" 
      class="wall" fill="#000000" stroke="#000000" stroke-width="0.05" /></g><g class="room" data-room="LivingSleep"><rect x="10" y="0" width="14" height="20" 
    class="room-background" fill="#E0E0E0" stroke="none" /><rect x="10" y="0" width="14" height="0.2" 
      class="wall" fill="#000000" stroke="#000000" stroke-width="0.05" /><rect x="11.399999999999999" y="0.05" width="11.200000000000001" height="0.1" 
    class="window" fill="white" stroke="black" stroke-width="0.01" data-type="window" data-direction="top" /><rect x="23.8" y="0" width="0.2" height="20" 
      class="wall" fill="#000000" stroke="#000000" stroke-width="0.05" /><rect x="23.85" y="2" width="0.1" height="16" 
    class="window" fill="white" stroke="black" stroke-width="0.01" data-type="window" data-direction="right" /><rect x="10" y="19.8" width="14" height="0.2" 
      class="wall" fill="#000000" stroke="#000000" stroke-width="0.05" /><rect x="11.399999999999999" y="19.85" width="11.200000000000001" height="0.1" 
    class="window" fill="white" stroke="black" stroke-width="0.01" data-type="window" data-direction="bottom" /><rect x="10" y="0" width="0.2" height="20" 
      class="wall" fill="#000000" stroke="#000000" stroke-width="0.05" /></g><rect x="9.8" y="-1.4" width="0.2" height="6" 
      fill="white" stroke="none" class="opening" data-type="opening" data-direction="right" /><path d="M 9.9 12.85 L 8.200000000000001 12.85 A 1.7 1.7 0 0 1 9.9 10.85" fill="white" stroke="black" stroke-width="0.05" class="door" data-type="door" data-direction="right" data-swing="default" /><rect x="9.8" y="17.25" width="0.2" height="4" 
      fill="white" stroke="none" class="opening" data-type="opening" data-direction="right" /><g class="floor-circulation" aria-label="Circulation elements"></g><g class="room-labels" aria-label="Room labels"><text x="5" y="2.5" text-anchor="middle" dominant-baseline="middle" 
    class="room-name" font-size="0.8" fill="black">Kitchen</text><text x="5" y="3.5" text-anchor="middle" dominant-baseline="middle" 
      class="room-label" font-size="0.8">Kitchen</text><text x="5" y="4.5" text-anchor="middle" dominant-baseline="middle" 
    class="room-size" font-size="0.7" fill="gray">10 x 8</text><text x="5" y="5.5" text-anchor="middle" dominant-baseline="middle" 
      class="room-area" font-size="0.6" fill="#666">[80 sqft]</text><text x="5" y="10" text-anchor="middle" dominant-baseline="middle" 
    class="room-name" font-size="0.8" fill="black">Bath</text><text x="5" y="11" text-anchor="middle" dominant-baseline="middle" 
      class="room-label" font-size="0.8">Bath</text><text x="5" y="12" text-anchor="middle" dominant-baseline="middle" 
    class="room-size" font-size="0.7" fill="gray">10 x 7</text><text x="5" y="13" text-anchor="middle" dominant-baseline="middle" 
      class="room-area" font-size="0.6" fill="#666">[70 sqft]</text><text x="5" y="16" text-anchor="middle" dominant-baseline="middle" 
    class="room-name" font-size="0.8" fill="black">Entry</text><text x="5" y="17" text-anchor="middle" dominant-baseline="middle" 
      class="room-label" font-size="0.8">Entry Vestibule</text><text x="5" y="18" text-anchor="middle" dominant-baseline="middle" 
    class="room-size" font-size="0.7" fill="gray">10 x 5</text><text x="5" y="19" text-anchor="middle" dominant-baseline="middle" 
      class="room-area" font-size="0.6" fill="#666">[50 sqft]</text><text x="17" y="8.5" text-anchor="middle" dominant-baseline="middle" 
    class="room-name" font-size="0.8" fill="black">LivingSleep</text><text x="17" y="9.5" text-anchor="middle" dominant-baseline="middle" 
      class="room-label" font-size="0.8">Living / Sleep</text><text x="17" y="10.5" text-anchor="middle" dominant-baseline="middle" 
    class="room-size" font-size="0.7" fill="gray">14 x 20</text><text x="17" y="11.5" text-anchor="middle" dominant-baseline="middle" 
      class="room-area" font-size="0.6" fill="#666">[280 sqft]</text></g><g class="floor-dimensions"><g class="room-dimensions" data-room="Kitchen"><g class="dimension-line"><line x1="0" y1="-0.8" x2="10" y2="-0.8" 
    stroke="#333" stroke-width="0.03" /><line 
    x1="0" y1="-0.65" 
    x2="0" y2="-0.9500000000000001" 
    stroke="#333" stroke-width="0.03" /><line 
    x1="10" y1="-0.65" 
    x2="10" y2="-0.9500000000000001" 
    stroke="#333" stroke-width="0.03" /><text x="5" y="-0.5" 
    text-anchor="middle" dominant-baseline="middle"
    font-size="0.5" fill="#333"
    transform="rotate(0, 5, -0.5)">10undefined</text></g><g class="dimension-line"><line x1="-0.8" y1="0" x2="-0.8" y2="8" 
    stroke="#333" stroke-width="0.03" /><line 
    x1="-0.9500000000000001" y1="0" 
    x2="-0.65" y2="0" 
    stroke="#333" stroke-width="0.03" /><line 
    x1="-0.9500000000000001" y1="8" 
    x2="-0.65" y2="8" 
    stroke="#333" stroke-width="0.03" /><text x="-1.1" y="4" 
    text-anchor="middle" dominant-baseline="middle"
    font-size="0.5" fill="#333"
    transform="rotate(90, -1.1, 4)">8undefined</text></g></g><g class="room-dimensions" data-room="Bath"><g class="dimension-line"><line x1="0" y1="7.2" x2="10" y2="7.2" 
    stroke="#333" stroke-width="0.03" /><line 
    x1="0" y1="7.3500000000000005" 
    x2="0" y2="7.05" 
    stroke="#333" stroke-width="0.03" /><line 
    x1="10" y1="7.3500000000000005" 
    x2="10" y2="7.05" 
    stroke="#333" stroke-width="0.03" /><text x="5" y="7.5" 
    text-anchor="middle" dominant-baseline="middle"
    font-size="0.5" fill="#333"
    transform="rotate(0, 5, 7.5)">10undefined</text></g><g class="dimension-line"><line x1="-0.8" y1="8" x2="-0.8" y2="15" 
    stroke="#333" stroke-width="0.03" /><line 
    x1="-0.9500000000000001" y1="8" 
    x2="-0.65" y2="8" 
    stroke="#333" stroke-width="0.03" /><line 
    x1="-0.9500000000000001" y1="15" 
    x2="-0.65" y2="15" 
    stroke="#333" stroke-width="0.03" /><text x="-1.1" y="11.5" 
    text-anchor="middle" dominant-baseline="middle"
    font-size="0.5" fill="#333"
    transform="rotate(90, -1.1, 11.5)">7undefined</text></g></g><g class="room-dimensions" data-room="Entry"><g class="dimension-line"><line x1="0" y1="14.2" x2="10" y2="14.2" 
    stroke="#333" stroke-width="0.03" /><line 
    x1="0" y1="14.35" 
    x2="0" y2="14.049999999999999" 
    stroke="#333" stroke-width="0.03" /><line 
    x1="10" y1="14.35" 
    x2="10" y2="14.049999999999999" 
    stroke="#333" stroke-width="0.03" /><text x="5" y="14.5" 
    text-anchor="middle" dominant-baseline="middle"
    font-size="0.5" fill="#333"
    transform="rotate(0, 5, 14.5)">10undefined</text></g><g class="dimension-line"><line x1="-0.8" y1="15" x2="-0.8" y2="20" 
    stroke="#333" stroke-width="0.03" /><line 
    x1="-0.9500000000000001" y1="15" 
    x2="-0.65" y2="15" 
    stroke="#333" stroke-width="0.03" /><line 
    x1="-0.9500000000000001" y1="20" 
    x2="-0.65" y2="20" 
    stroke="#333" stroke-width="0.03" /><text x="-1.1" y="17.5" 
    text-anchor="middle" dominant-baseline="middle"
    font-size="0.5" fill="#333"
    transform="rotate(90, -1.1, 17.5)">5undefined</text></g></g><g class="room-dimensions" data-room="LivingSleep"><g class="dimension-line"><line x1="10" y1="-0.8" x2="24" y2="-0.8" 
    stroke="#333" stroke-width="0.03" /><line 
    x1="10" y1="-0.65" 
    x2="10" y2="-0.9500000000000001" 
    stroke="#333" stroke-width="0.03" /><line 
    x1="24" y1="-0.65" 
    x2="24" y2="-0.9500000000000001" 
    stroke="#333" stroke-width="0.03" /><text x="17" y="-0.5" 
    text-anchor="middle" dominant-baseline="middle"
    font-size="0.5" fill="#333"
    transform="rotate(0, 17, -0.5)">14undefined</text></g><g class="dimension-line"><line x1="9.2" y1="0" x2="9.2" y2="20" 
    stroke="#333" stroke-width="0.03" /><line 
    x1="9.049999999999999" y1="0" 
    x2="9.35" y2="0" 
    stroke="#333" stroke-width="0.03" /><line 
    x1="9.049999999999999" y1="20" 
    x2="9.35" y2="20" 
    stroke="#333" stroke-width="0.03" /><text x="8.899999999999999" y="10" 
    text-anchor="middle" dominant-baseline="middle"
    font-size="0.5" fill="#333"
    transform="rotate(90, 8.899999999999999, 10)">20undefined</text></g></g></g></g></svg>