<svg viewBox="-2 -2 40 32" xmlns="http://www.w3.org/2000/svg" width="40" height="32" role="img" aria-roledescription="floorplan"><defs>
    <marker id="arrowhead" markerWidth="10" markerHeight="7" refX="9" refY="3.5" orient="auto">
      <polygon points="0 0, 10 3.5, 0 7" fill="#666" />
    </marker>
  </defs><style>
    /* Floor background */
    .floor-background {
      fill: #eed;
      stroke: #000;
      stroke-width: 0.1;
    }

    /* Room container */
    .room {
      /* Room styling handled by walls */
    }

    /* Wall styling */
    .wall {
      fill: #000;
      stroke: #000;
      stroke-width: 0.05;
    }

    /* Door styling */
    .door {
      fill: #fff;
      stroke: #000;
      stroke-width: 0.05;
    }

    /* Window styling */
    .window {
      fill: #fff;
      stroke: #000;
      stroke-width: 0.01;
    }

    /* Text styling */
    .room-name {
      fill: #000;
      font-family: Arial, sans-serif;
      font-size: 0.8;
    }

    .room-label {
      fill: #000;
      font-family: Arial, sans-serif;
      font-size: 0.8;
    }

    .room-size {
      fill: #666;
      font-family: Arial, sans-serif;
      font-size: 0.7;
    }
  </style><g class="floorplan" aria-label="Floor: GroundFloor"><rect x="0" y="0" 
    width="36" height="28" 
    class="floor-background" fill="#eed" stroke="black" stroke-width="0.1" /><g class="room" data-room="Foyer"><rect x="0" y="0" width="6" height="10" 
    class="room-background" fill="#E0E0E0" stroke="none" /><rect x="0" y="0" width="6" height="0.2" 
      class="wall" fill="#000000" stroke="#000000" stroke-width="0.05" /><rect x="0" y="9.8" width="6" height="0.2" 
      class="wall" fill="#000000" stroke="#000000" stroke-width="0.05" /><rect x="0" y="0" width="0.2" height="10" 
      class="wall" fill="#000000" stroke="#000000" stroke-width="0.05" /></g><g class="room" data-room="LivingRoom"><rect x="6" y="0" width="18" height="10" 
    class="room-background" fill="#E0E0E0" stroke="none" /><rect x="6" y="0" width="18" height="0.2" 
      class="wall" fill="#000000" stroke="#000000" stroke-width="0.05" /><rect x="7.8" y="0.05" width="14.4" height="0.1" 
    class="window" fill="white" stroke="black" stroke-width="0.01" data-type="window" data-direction="top" /><rect x="6" y="9.8" width="18" height="0.2" 
      class="wall" fill="#000000" stroke="#000000" stroke-width="0.05" /></g><g class="room" data-room="Kitchen"><rect x="24" y="0" width="12" height="10" 
    class="room-background" fill="#E0E0E0" stroke="none" /><rect x="24" y="0" width="12" height="0.2" 
      class="wall" fill="#000000" stroke="#000000" stroke-width="0.05" /><rect x="25.2" y="0.05" width="9.600000000000001" height="0.1" 
    class="window" fill="white" stroke="black" stroke-width="0.01" data-type="window" data-direction="top" /><rect x="35.8" y="0" width="0.2" height="10" 
      class="wall" fill="#000000" stroke="#000000" stroke-width="0.05" /><rect x="24" y="9.8" width="12" height="0.2" 
      class="wall" fill="#000000" stroke="#000000" stroke-width="0.05" /></g><g class="room" data-room="Hall"><rect x="0" y="10" width="24" height="4" 
    class="room-background" fill="#E0E0E0" stroke="none" /><rect x="0" y="10" width="24" height="0.2" 
      class="wall" fill="#000000" stroke="#000000" stroke-width="0.05" /><rect x="23.8" y="10" width="0.2" height="4" 
      class="wall" fill="#000000" stroke="#000000" stroke-width="0.05" /><rect x="0" y="13.8" width="24" height="0.2" 
      class="wall" fill="#000000" stroke="#000000" stroke-width="0.05" /><rect x="0" y="10" width="0.2" height="4" 
      class="wall" fill="#000000" stroke="#000000" stroke-width="0.05" /></g><g class="room" data-room="HallBath"><rect x="24" y="10" width="12" height="4" 
    class="room-background" fill="#E0E0E0" stroke="none" /><rect x="24" y="10" width="12" height="0.2" 
      class="wall" fill="#000000" stroke="#000000" stroke-width="0.05" /><rect x="35.8" y="10" width="0.2" height="4" 
      class="wall" fill="#000000" stroke="#000000" stroke-width="0.05" /><rect x="24" y="13.8" width="12" height="0.2" 
      class="wall" fill="#000000" stroke="#000000" stroke-width="0.05" /><rect x="24" y="10" width="0.2" height="4" 
      class="wall" fill="#000000" stroke="#000000" stroke-width="0.05" /></g><g class="room" data-room="Bedroom2"><rect x="0" y="14" width="12" height="14" 
    class="room-background" fill="#E0E0E0" stroke="none" /><rect x="0" y="14" width="12" height="0.2" 
      class="wall" fill="#000000" stroke="#000000" stroke-width="0.05" /><rect x="11.8" y="14" width="0.2" height="14" 
      class="wall" fill="#000000" stroke="#000000" stroke-width="0.05" /><rect x="0" y="27.8" width="12" height="0.2" 
      class="wall" fill="#000000" stroke="#000000" stroke-width="0.05" /><rect x="1.1999999999999993" y="27.85" width="9.600000000000001" height="0.1" 
    class="window" fill="white" stroke="black" stroke-width="0.01" data-type="window" data-direction="bottom" /><rect x="0" y="14" width="0.2" height="14" 
      class="wall" fill="#000000" stroke="#000000" stroke-width="0.05" /><rect x="0.05" y="15.399999999999999" width="0.1" height="11.200000000000001" 
    class="window" fill="white" stroke="black" stroke-width="0.01" data-type="window" data-direction="left" /></g><g class="room" data-room="MasterBedroom"><rect x="12" y="14" width="14" height="14" 
    class="room-background" fill="#E0E0E0" stroke="none" /><rect x="12" y="14" width="14" height="0.2" 
      class="wall" fill="#000000" stroke="#000000" stroke-width="0.05" /><rect x="25.8" y="14" width="0.2" height="14" 
      class="wall" fill="#000000" stroke="#000000" stroke-width="0.05" /><rect x="12" y="27.8" width="14" height="0.2" 
      class="wall" fill="#000000" stroke="#000000" stroke-width="0.05" /><rect x="13.399999999999999" y="27.85" width="11.200000000000001" height="0.1" 
    class="window" fill="white" stroke="black" stroke-width="0.01" data-type="window" data-direction="bottom" /><rect x="12" y="14" width="0.2" height="14" 
      class="wall" fill="#000000" stroke="#000000" stroke-width="0.05" /></g><g class="room" data-room="MasterBath"><rect x="26" y="14" width="10" height="14" 
    class="room-background" fill="#E0E0E0" stroke="none" /><rect x="26" y="14" width="10" height="0.2" 
      class="wall" fill="#000000" stroke="#000000" stroke-width="0.05" /><rect x="35.8" y="14" width="0.2" height="14" 
      class="wall" fill="#000000" stroke="#000000" stroke-width="0.05" /><rect x="35.85" y="15.399999999999999" width="0.1" height="11.200000000000001" 
    class="window" fill="white" stroke="black" stroke-width="0.01" data-type="window" data-direction="right" /><rect x="26" y="27.8" width="10" height="0.2" 
      class="wall" fill="#000000" stroke="#000000" stroke-width="0.05" /><rect x="26" y="14" width="0.2" height="14" 
      class="wall" fill="#000000" stroke="#000000" stroke-width="0.05" /></g><path d="M 2 9.9 L 2 8.200000000000001 A 1.7 1.7 0 0 1 4 9.9" fill="white" stroke="black" stroke-width="0.05" class="door" data-type="door" data-direction="bottom" data-swing="default" /><path d="M 2 13.9 L 2 12.200000000000001 A 1.7 1.7 0 0 1 4 13.9" fill="white" stroke="black" stroke-width="0.05" class="door" data-type="door" data-direction="bottom" data-swing="default" /><path d="M 19.4 13.9 L 19.4 12.200000000000001 A 1.7 1.7 0 0 1 21.4 13.9" fill="white" stroke="black" stroke-width="0.05" class="door" data-type="door" data-direction="bottom" data-swing="default" /><path d="M 23.900000000000002 13 L 22.200000000000003 13 A 1.7 1.7 0 0 1 23.900000000000002 11" fill="white" stroke="black" stroke-width="0.05" class="door" data-type="door" data-direction="right" data-swing="default" /><path d="M 25.900000000000002 19.2 L 24.200000000000003 19.2 A 1.7 1.7 0 0 1 25.900000000000002 17.2" fill="white" stroke="black" stroke-width="0.05" class="door" data-type="door" data-direction="right" data-swing="default" /><g class="floor-circulation" aria-label="Circulation elements"></g><g class="room-labels" aria-label="Room labels"><text x="3" y="3.5" text-anchor="middle" dominant-baseline="middle" 
    class="room-name" font-size="0.8" fill="black">Foyer</text><text x="3" y="4.5" text-anchor="middle" dominant-baseline="middle" 
      class="room-label" font-size="0.8">Entry</text><text x="3" y="5.5" text-anchor="middle" dominant-baseline="middle" 
    class="room-size" font-size="0.7" fill="gray">6 x 10</text><text x="3" y="6.5" text-anchor="middle" dominant-baseline="middle" 
      class="room-area" font-size="0.6" fill="#666">[60 sqft]</text><text x="15" y="3.5" text-anchor="middle" dominant-baseline="middle" 
    class="room-name" font-size="0.8" fill="black">LivingRoom</text><text x="15" y="4.5" text-anchor="middle" dominant-baseline="middle" 
      class="room-label" font-size="0.8">Living</text><text x="15" y="5.5" text-anchor="middle" dominant-baseline="middle" 
    class="room-size" font-size="0.7" fill="gray">18 x 10</text><text x="15" y="6.5" text-anchor="middle" dominant-baseline="middle" 
      class="room-area" font-size="0.6" fill="#666">[180 sqft]</text><text x="30" y="3.5" text-anchor="middle" dominant-baseline="middle" 
    class="room-name" font-size="0.8" fill="black">Kitchen</text><text x="30" y="4.5" text-anchor="middle" dominant-baseline="middle" 
      class="room-label" font-size="0.8">Kitchen</text><text x="30" y="5.5" text-anchor="middle" dominant-baseline="middle" 
    class="room-size" font-size="0.7" fill="gray">12 x 10</text><text x="30" y="6.5" text-anchor="middle" dominant-baseline="middle" 
      class="room-area" font-size="0.6" fill="#666">[120 sqft]</text><text x="12" y="10.5" text-anchor="middle" dominant-baseline="middle" 
    class="room-name" font-size="0.8" fill="black">Hall</text><text x="12" y="11.5" text-anchor="middle" dominant-baseline="middle" 
      class="room-label" font-size="0.8">Hall</text><text x="12" y="12.5" text-anchor="middle" dominant-baseline="middle" 
    class="room-size" font-size="0.7" fill="gray">24 x 4</text><text x="12" y="13.5" text-anchor="middle" dominant-baseline="middle" 
      class="room-area" font-size="0.6" fill="#666">[96 sqft]</text><text x="30" y="10.5" text-anchor="middle" dominant-baseline="middle" 
    class="room-name" font-size="0.8" fill="black">HallBath</text><text x="30" y="11.5" text-anchor="middle" dominant-baseline="middle" 
      class="room-label" font-size="0.8">Hall Bath</text><text x="30" y="12.5" text-anchor="middle" dominant-baseline="middle" 
    class="room-size" font-size="0.7" fill="gray">12 x 4</text><text x="30" y="13.5" text-anchor="middle" dominant-baseline="middle" 
      class="room-area" font-size="0.6" fill="#666">[48 sqft]</text><text x="6" y="19.5" text-anchor="middle" dominant-baseline="middle" 
    class="room-name" font-size="0.8" fill="black">Bedroom2</text><text x="6" y="20.5" text-anchor="middle" dominant-baseline="middle" 
      class="room-label" font-size="0.8">Bedroom 2</text><text x="6" y="21.5" text-anchor="middle" dominant-baseline="middle" 
    class="room-size" font-size="0.7" fill="gray">12 x 14</text><text x="6" y="22.5" text-anchor="middle" dominant-baseline="middle" 
      class="room-area" font-size="0.6" fill="#666">[168 sqft]</text><text x="19" y="19.5" text-anchor="middle" dominant-baseline="middle" 
    class="room-name" font-size="0.8" fill="black">MasterBedroom</text><text x="19" y="20.5" text-anchor="middle" dominant-baseline="middle" 
      class="room-label" font-size="0.8">Master</text><text x="19" y="21.5" text-anchor="middle" dominant-baseline="middle" 
    class="room-size" font-size="0.7" fill="gray">14 x 14</text><text x="19" y="22.5" text-anchor="middle" dominant-baseline="middle" 
      class="room-area" font-size="0.6" fill="#666">[196 sqft]</text><text x="31" y="19.5" text-anchor="middle" dominant-baseline="middle" 
    class="room-name" font-size="0.8" fill="black">MasterBath</text><text x="31" y="20.5" text-anchor="middle" dominant-baseline="middle" 
      class="room-label" font-size="0.8">Ensuite</text><text x="31" y="21.5" text-anchor="middle" dominant-baseline="middle" 
    class="room-size" font-size="0.7" fill="gray">10 x 14</text><text x="31" y="22.5" text-anchor="middle" dominant-baseline="middle" 
      class="room-area" font-size="0.6" fill="#666">[140 sqft]</text></g><g class="floor-dimensions"><g class="room-dimensions" data-room="Foyer"><g class="dimension-line"><line x1="0" y1="-0.8" x2="6" y2="-0.8" 
    stroke="#333" stroke-width="0.03" /><line 
    x1="0" y1="-0.65" 
    x2="0" y2="-0.9500000000000001" 
    stroke="#333" stroke-width="0.03" /><line 
    x1="6" y1="-0.65" 
    x2="6" y2="-0.9500000000000001" 
    stroke="#333" stroke-width="0.03" /><text x="3" y="-0.5" 
    text-anchor="middle" dominant-baseline="middle"
    font-size="0.5" fill="#333"
    transform="rotate(0, 3, -0.5)">6undefined</text></g><g class="dimension-line"><line x1="-0.8" y1="0" x2="-0.8" y2="10" 
    stroke="#333" stroke-width="0.03" /><line 
    x1="-0.9500000000000001" y1="0" 
    x2="-0.65" y2="0" 
    stroke="#333" stroke-width="0.03" /><line 
    x1="-0.9500000000000001" y1="10" 
    x2="-0.65" y2="10" 
    stroke="#333" stroke-width="0.03" /><text x="-1.1" y="5" 
    text-anchor="middle" dominant-baseline="middle"
    font-size="0.5" fill="#333"
    transform="rotate(90, -1.1, 5)">10undefined</text></g></g><g class="room-dimensions" data-room="LivingRoom"><g class="dimension-line"><line x1="6" y1="-0.8" x2="24" y2="-0.8" 
    stroke="#333" stroke-width="0.03" /><line 
    x1="6" y1="-0.65" 
    x2="6" y2="-0.9500000000000001" 
    stroke="#333" stroke-width="0.03" /><line 
    x1="24" y1="-0.65" 
    x2="24" y2="-0.9500000000000001" 
    stroke="#333" stroke-width="0.03" /><text x="15" y="-0.5" 
    text-anchor="middle" dominant-baseline="middle"
    font-size="0.5" fill="#333"
    transform="rotate(0, 15, -0.5)">18undefined</text></g><g class="dimension-line"><line x1="5.2" y1="0" x2="5.2" y2="10" 
    stroke="#333" stroke-width="0.03" /><line 
    x1="5.05" y1="0" 
    x2="5.3500000000000005" y2="0" 
    stroke="#333" stroke-width="0.03" /><line 
    x1="5.05" y1="10" 
    x2="5.3500000000000005" y2="10" 
    stroke="#333" stroke-width="0.03" /><text x="4.9" y="5" 
    text-anchor="middle" dominant-baseline="middle"
    font-size="0.5" fill="#333"
    transform="rotate(90, 4.9, 5)">10undefined</text></g></g><g class="room-dimensions" data-room="Kitchen"><g class="dimension-line"><line x1="24" y1="-0.8" x2="36" y2="-0.8" 
    stroke="#333" stroke-width="0.03" /><line 
    x1="24" y1="-0.65" 
    x2="24" y2="-0.9500000000000001" 
    stroke="#333" stroke-width="0.03" /><line 
    x1="36" y1="-0.65" 
    x2="36" y2="-0.9500000000000001" 
    stroke="#333" stroke-width="0.03" /><text x="30" y="-0.5" 
    text-anchor="middle" dominant-baseline="middle"
    font-size="0.5" fill="#333"
    transform="rotate(0, 30, -0.5)">12undefined</text></g><g class="dimension-line"><line x1="23.2" y1="0" x2="23.2" y2="10" 
    stroke="#333" stroke-width="0.03" /><line 
    x1="23.05" y1="0" 
    x2="23.349999999999998" y2="0" 
    stroke="#333" stroke-width="0.03" /><line 
    x1="23.05" y1="10" 
    x2="23.349999999999998" y2="10" 
    stroke="#333" stroke-width="0.03" /><text x="22.9" y="5" 
    text-anchor="middle" dominant-baseline="middle"
    font-size="0.5" fill="#333"
    transform="rotate(90, 22.9, 5)">10undefined</text></g></g><g class="room-dimensions" data-room="Hall"><g class="dimension-line"><line x1="0" y1="9.2" x2="24" y2="9.2" 
    stroke="#333" stroke-width="0.03" /><line 
    x1="0" y1="9.35" 
    x2="0" y2="9.049999999999999" 
    stroke="#333" stroke-width="0.03" /><line 
    x1="24" y1="9.35" 
    x2="24" y2="9.049999999999999" 
    stroke="#333" stroke-width="0.03" /><text x="12" y="9.5" 
    text-anchor="middle" dominant-baseline="middle"
    font-size="0.5" fill="#333"
    transform="rotate(0, 12, 9.5)">24undefined</text></g><g class="dimension-line"><line x1="-0.8" y1="10" x2="-0.8" y2="14" 
    stroke="#333" stroke-width="0.03" /><line 
    x1="-0.9500000000000001" y1="10" 
    x2="-0.65" y2="10" 
    stroke="#333" stroke-width="0.03" /><line 
    x1="-0.9500000000000001" y1="14" 
    x2="-0.65" y2="14" 
    stroke="#333" stroke-width="0.03" /><text x="-1.1" y="12" 
    text-anchor="middle" dominant-baseline="middle"
    font-size="0.5" fill="#333"
    transform="rotate(90, -1.1, 12)">4undefined</text></g></g><g class="room-dimensions" data-room="HallBath"><g class="dimension-line"><line x1="24" y1="9.2" x2="36" y2="9.2" 
    stroke="#333" stroke-width="0.03" /><line 
    x1="24" y1="9.35" 
    x2="24" y2="9.049999999999999" 
    stroke="#333" stroke-width="0.03" /><line 
    x1="36" y1="9.35" 
    x2="36" y2="9.049999999999999" 
    stroke="#333" stroke-width="0.03" /><text x="30" y="9.5" 
    text-anchor="middle" dominant-baseline="middle"
    font-size="0.5" fill="#333"
    transform="rotate(0, 30, 9.5)">12undefined</text></g><g class="dimension-line"><line x1="23.2" y1="10" x2="23.2" y2="14" 
    stroke="#333" stroke-width="0.03" /><line 
    x1="23.05" y1="10" 
    x2="23.349999999999998" y2="10" 
    stroke="#333" stroke-width="0.03" /><line 
    x1="23.05" y1="14" 
    x2="23.349999999999998" y2="14" 
    stroke="#333" stroke-width="0.03" /><text x="22.9" y="12" 
    text-anchor="middle" dominant-baseline="middle"
    font-size="0.5" fill="#333"
    transform="rotate(90, 22.9, 12)">4undefined</text></g></g><g class="room-dimensions" data-room="Bedroom2"><g class="dimension-line"><line x1="0" y1="13.2" x2="12" y2="13.2" 
    stroke="#333" stroke-width="0.03" /><line 
    x1="0" y1="13.35" 
    x2="0" y2="13.049999999999999" 
    stroke="#333" stroke-width="0.03" /><line 
    x1="12" y1="13.35" 
    x2="12" y2="13.049999999999999" 
    stroke="#333" stroke-width="0.03" /><text x="6" y="13.5" 
    text-anchor="middle" dominant-baseline="middle"
    font-size="0.5" fill="#333"
    transform="rotate(0, 6, 13.5)">12undefined</text></g><g class="dimension-line"><line x1="-0.8" y1="14" x2="-0.8" y2="28" 
    stroke="#333" stroke-width="0.03" /><line 
    x1="-0.9500000000000001" y1="14" 
    x2="-0.65" y2="14" 
    stroke="#333" stroke-width="0.03" /><line 
    x1="-0.9500000000000001" y1="28" 
    x2="-0.65" y2="28" 
    stroke="#333" stroke-width="0.03" /><text x="-1.1" y="21" 
    text-anchor="middle" dominant-baseline="middle"
    font-size="0.5" fill="#333"
    transform="rotate(90, -1.1, 21)">14undefined</text></g></g><g class="room-dimensions" data-room="MasterBedroom"><g class="dimension-line"><line x1="12" y1="13.2" x2="26" y2="13.2" 
    stroke="#333" stroke-width="0.03" /><line 
    x1="12" y1="13.35" 
    x2="12" y2="13.049999999999999" 
    stroke="#333" stroke-width="0.03" /><line 
    x1="26" y1="13.35" 
    x2="26" y2="13.049999999999999" 
    stroke="#333" stroke-width="0.03" /><text x="19" y="13.5" 
    text-anchor="middle" dominant-baseline="middle"
    font-size="0.5" fill="#333"
    transform="rotate(0, 19, 13.5)">14undefined</text></g><g class="dimension-line"><line x1="11.2" y1="14" x2="11.2" y2="28" 
    stroke="#333" stroke-width="0.03" /><line 
    x1="11.049999999999999" y1="14" 
    x2="11.35" y2="14" 
    stroke="#333" stroke-width="0.03" /><line 
    x1="11.049999999999999" y1="28" 
    x2="11.35" y2="28" 
    stroke="#333" stroke-width="0.03" /><text x="10.899999999999999" y="21" 
    text-anchor="middle" dominant-baseline="middle"
    font-size="0.5" fill="#333"
    transform="rotate(90, 10.899999999999999, 21)">14undefined</text></g></g><g class="room-dimensions" data-room="MasterBath"><g class="dimension-line"><line x1="26" y1="13.2" x2="36" y2="13.2" 
    stroke="#333" stroke-width="0.03" /><line 
    x1="26" y1="13.35" 
    x2="26" y2="13.049999999999999" 
    stroke="#333" stroke-width="0.03" /><line 
    x1="36" y1="13.35" 
    x2="36" y2="13.049999999999999" 
    stroke="#333" stroke-width="0.03" /><text x="31" y="13.5" 
    text-anchor="middle" dominant-baseline="middle"
    font-size="0.5" fill="#333"
    transform="rotate(0, 31, 13.5)">10undefined</text></g><g class="dimension-line"><line x1="25.2" y1="14" x2="25.2" y2="28" 
    stroke="#333" stroke-width="0.03" /><line 
    x1="25.05" y1="14" 
    x2="25.349999999999998" y2="14" 
    stroke="#333" stroke-width="0.03" /><line 
    x1="25.05" y1="28" 
    x2="25.349999999999998" y2="28" 
    stroke="#333" stroke-width="0.03" /><text x="24.9" y="21" 
    text-anchor="middle" dominant-baseline="middle"
    font-size="0.5" fill="#333"
    transform="rotate(90, 24.9, 21)">14undefined</text></g></g></g></g></svg>