<svg viewBox="-2 -2 28 24" xmlns="http://www.w3.org/2000/svg" width="28" height="24" role="img" aria-roledescription="floorplan"><defs>
    <marker id="arrowhead" markerWidth="10" markerHeight="7" refX="9" refY="3.5" orient="auto">
      <polygon points="0 0, 10 3.5, 0 7" fill="#666" />
    </marker>
  </defs><style>
    /* Floor background */
    .floor-background {
      fill: #eed;
      stroke: #000;
      stroke-width: 0.1;
    }

    /* Room container */
    .room {
      /* Room styling handled by walls */
    }

    /* Wall styling */
    .wall {
      fill: #000;
      stroke: #000;
      stroke-width: 0.05;
    }

    /* Door styling */
    .door {
      fill: #fff;
      stroke: #000;
      stroke-width: 0.05;
    }

    /* Window styling */
    .window {
      fill: #fff;
      stroke: #000;
      stroke-width: 0.01;
    }

    /* Text styling */
    .room-name {
      fill: #000;
      font-family: Arial, sans-serif;
      font-size: 0.8;
    }

    .room-label {
      fill: #000;
      font-family: Arial, sans-serif;
      font-size: 0.8;
    }

    .room-size {
      fill: #666;
      font-family: Arial, sans-serif;
      font-size: 0.7;
    }
  </style><g class="floorplan" aria-label="Floor: GroundFloor"><rect x="0" y="0" 
    width="24" height="20" 
    class="floor-background" fill="#eed" stroke="black" stroke-width="0.1" /><g class="room" data-room="Kitchen"><rect x="0" y="12" width="8" height="8" 
    class="room-background" fill="#E0E0E0" stroke="none" /><rect x="0" y="12" width="8" height="0.2" 
      class="wall" fill="#000000" stroke="#000000" stroke-width="0.05" /><rect x="0.7999999999999998" y="12.049999999999999" width="6.4" height="0.1" 
    class="window" fill="white" stroke="black" stroke-width="0.01" data-type="window" data-direction="top" /><rect x="0" y="19.8" width="8" height="0.2" 
      class="wall" fill="#000000" stroke="#000000" stroke-width="0.05" /><rect x="0" y="12" width="0.2" height="8" 
      class="wall" fill="#000000" stroke="#000000" stroke-width="0.05" /></g><g class="room" data-room="Living"><rect x="8" y="12" width="16" height="8" 
    class="room-background" fill="#E0E0E0" stroke="none" /><rect x="8" y="12" width="16" height="0.2" 
      class="wall" fill="#000000" stroke="#000000" stroke-width="0.05" /><rect x="9.6" y="12.049999999999999" width="12.8" height="0.1" 
    class="window" fill="white" stroke="black" stroke-width="0.01" data-type="window" data-direction="top" /><rect x="23.8" y="12" width="0.2" height="8" 
      class="wall" fill="#000000" stroke="#000000" stroke-width="0.05" /><path d="M 23.900000000000002 20 L 17.1 20 A 6.8 6.8 0 0 1 23.900000000000002 12" fill="white" stroke="black" stroke-width="0.05" class="door" data-type="door" data-direction="right" data-swing="default" /><rect x="8" y="19.8" width="16" height="0.2" 
      class="wall" fill="#000000" stroke="#000000" stroke-width="0.05" /></g><g class="room" data-room="Sleep"><rect x="0" y="0" width="16" height="12" 
    class="room-background" fill="#E0E0E0" stroke="none" /><rect x="0" y="0" width="16" height="0.2" 
      class="wall" fill="#000000" stroke="#000000" stroke-width="0.05" /><rect x="15.8" y="0" width="0.2" height="12" 
      class="wall" fill="#000000" stroke="#000000" stroke-width="0.05" /><rect x="0" y="11.8" width="16" height="0.2" 
      class="wall" fill="#000000" stroke="#000000" stroke-width="0.05" /><rect x="1.5999999999999996" y="11.85" width="12.8" height="0.1" 
    class="window" fill="white" stroke="black" stroke-width="0.01" data-type="window" data-direction="bottom" /><rect x="0" y="0" width="0.2" height="12" 
      class="wall" fill="#000000" stroke="#000000" stroke-width="0.05" /><rect x="0.05" y="1.1999999999999993" width="0.1" height="9.600000000000001" 
    class="window" fill="white" stroke="black" stroke-width="0.01" data-type="window" data-direction="left" /></g><g class="room" data-room="Bath"><rect x="16" y="0" width="8" height="12" 
    class="room-background" fill="#E0E0E0" stroke="none" /><rect x="16" y="0" width="8" height="0.2" 
      class="wall" fill="#000000" stroke="#000000" stroke-width="0.05" /><rect x="23.8" y="0" width="0.2" height="12" 
      class="wall" fill="#000000" stroke="#000000" stroke-width="0.05" /><rect x="23.85" y="1.1999999999999993" width="0.1" height="9.600000000000001" 
    class="window" fill="white" stroke="black" stroke-width="0.01" data-type="window" data-direction="right" /><rect x="16" y="11.8" width="8" height="0.2" 
      class="wall" fill="#000000" stroke="#000000" stroke-width="0.05" /><rect x="16" y="0" width="0.2" height="12" 
      class="wall" fill="#000000" stroke="#000000" stroke-width="0.05" /></g><rect x="7.5" y="0" width="5" height="0.2" 
      fill="white" stroke="none" class="opening" data-type="opening" data-direction="bottom" /><path d="M 15.9 10.6 L 14.200000000000001 10.6 A 1.7 1.7 0 0 1 15.9 8.6" fill="white" stroke="black" stroke-width="0.05" class="door" data-type="door" data-direction="right" data-swing="default" /><g class="floor-circulation" aria-label="Circulation elements"></g><g class="room-labels" aria-label="Room labels"><text x="4" y="14.5" text-anchor="middle" dominant-baseline="middle" 
    class="room-name" font-size="0.8" fill="black">Kitchen</text><text x="4" y="15.5" text-anchor="middle" dominant-baseline="middle" 
      class="room-label" font-size="0.8">Kitchen</text><text x="4" y="16.5" text-anchor="middle" dominant-baseline="middle" 
    class="room-size" font-size="0.7" fill="gray">8 x 8</text><text x="4" y="17.5" text-anchor="middle" dominant-baseline="middle" 
      class="room-area" font-size="0.6" fill="#666">[64 sqft]</text><text x="16" y="14.5" text-anchor="middle" dominant-baseline="middle" 
    class="room-name" font-size="0.8" fill="black">Living</text><text x="16" y="15.5" text-anchor="middle" dominant-baseline="middle" 
      class="room-label" font-size="0.8">Living</text><text x="16" y="16.5" text-anchor="middle" dominant-baseline="middle" 
    class="room-size" font-size="0.7" fill="gray">16 x 8</text><text x="16" y="17.5" text-anchor="middle" dominant-baseline="middle" 
      class="room-area" font-size="0.6" fill="#666">[128 sqft]</text><text x="8" y="4.5" text-anchor="middle" dominant-baseline="middle" 
    class="room-name" font-size="0.8" fill="black">Sleep</text><text x="8" y="5.5" text-anchor="middle" dominant-baseline="middle" 
      class="room-label" font-size="0.8">Sleep</text><text x="8" y="6.5" text-anchor="middle" dominant-baseline="middle" 
    class="room-size" font-size="0.7" fill="gray">16 x 12</text><text x="8" y="7.5" text-anchor="middle" dominant-baseline="middle" 
      class="room-area" font-size="0.6" fill="#666">[192 sqft]</text><text x="20" y="4.5" text-anchor="middle" dominant-baseline="middle" 
    class="room-name" font-size="0.8" fill="black">Bath</text><text x="20" y="5.5" text-anchor="middle" dominant-baseline="middle" 
      class="room-label" font-size="0.8">Bath</text><text x="20" y="6.5" text-anchor="middle" dominant-baseline="middle" 
    class="room-size" font-size="0.7" fill="gray">8 x 12</text><text x="20" y="7.5" text-anchor="middle" dominant-baseline="middle" 
      class="room-area" font-size="0.6" fill="#666">[96 sqft]</text></g><g class="floor-dimensions"><g class="room-dimensions" data-room="Kitchen"><g class="dimension-line"><line x1="0" y1="11.2" x2="8" y2="11.2" 
    stroke="#333" stroke-width="0.03" /><line 
    x1="0" y1="11.35" 
    x2="0" y2="11.049999999999999" 
    stroke="#333" stroke-width="0.03" /><line 
    x1="8" y1="11.35" 
    x2="8" y2="11.049999999999999" 
    stroke="#333" stroke-width="0.03" /><text x="4" y="11.5" 
    text-anchor="middle" dominant-baseline="middle"
    font-size="0.5" fill="#333"
    transform="rotate(0, 4, 11.5)">8ft</text></g><g class="dimension-line"><line x1="-0.8" y1="12" x2="-0.8" y2="20" 
    stroke="#333" stroke-width="0.03" /><line 
    x1="-0.9500000000000001" y1="12" 
    x2="-0.65" y2="12" 
    stroke="#333" stroke-width="0.03" /><line 
    x1="-0.9500000000000001" y1="20" 
    x2="-0.65" y2="20" 
    stroke="#333" stroke-width="0.03" /><text x="-1.1" y="16" 
    text-anchor="middle" dominant-baseline="middle"
    font-size="0.5" fill="#333"
    transform="rotate(90, -1.1, 16)">8ft</text></g></g><g class="room-dimensions" data-room="Living"><g class="dimension-line"><line x1="8" y1="11.2" x2="24" y2="11.2" 
    stroke="#333" stroke-width="0.03" /><line 
    x1="8" y1="11.35" 
    x2="8" y2="11.049999999999999" 
    stroke="#333" stroke-width="0.03" /><line 
    x1="24" y1="11.35" 
    x2="24" y2="11.049999999999999" 
    stroke="#333" stroke-width="0.03" /><text x="16" y="11.5" 
    text-anchor="middle" dominant-baseline="middle"
    font-size="0.5" fill="#333"
    transform="rotate(0, 16, 11.5)">16ft</text></g><g class="dimension-line"><line x1="7.2" y1="12" x2="7.2" y2="20" 
    stroke="#333" stroke-width="0.03" /><line 
    x1="7.05" y1="12" 
    x2="7.3500000000000005" y2="12" 
    stroke="#333" stroke-width="0.03" /><line 
    x1="7.05" y1="20" 
    x2="7.3500000000000005" y2="20" 
    stroke="#333" stroke-width="0.03" /><text x="6.9" y="16" 
    text-anchor="middle" dominant-baseline="middle"
    font-size="0.5" fill="#333"
    transform="rotate(90, 6.9, 16)">8ft</text></g></g><g class="room-dimensions" data-room="Sleep"><g class="dimension-line"><line x1="0" y1="-0.8" x2="16" y2="-0.8" 
    stroke="#333" stroke-width="0.03" /><line 
    x1="0" y1="-0.65" 
    x2="0" y2="-0.9500000000000001" 
    stroke="#333" stroke-width="0.03" /><line 
    x1="16" y1="-0.65" 
    x2="16" y2="-0.9500000000000001" 
    stroke="#333" stroke-width="0.03" /><text x="8" y="-0.5" 
    text-anchor="middle" dominant-baseline="middle"
    font-size="0.5" fill="#333"
    transform="rotate(0, 8, -0.5)">16ft</text></g><g class="dimension-line"><line x1="-0.8" y1="0" x2="-0.8" y2="12" 
    stroke="#333" stroke-width="0.03" /><line 
    x1="-0.9500000000000001" y1="0" 
    x2="-0.65" y2="0" 
    stroke="#333" stroke-width="0.03" /><line 
    x1="-0.9500000000000001" y1="12" 
    x2="-0.65" y2="12" 
    stroke="#333" stroke-width="0.03" /><text x="-1.1" y="6" 
    text-anchor="middle" dominant-baseline="middle"
    font-size="0.5" fill="#333"
    transform="rotate(90, -1.1, 6)">12ft</text></g></g><g class="room-dimensions" data-room="Bath"><g class="dimension-line"><line x1="16" y1="-0.8" x2="24" y2="-0.8" 
    stroke="#333" stroke-width="0.03" /><line 
    x1="16" y1="-0.65" 
    x2="16" y2="-0.9500000000000001" 
    stroke="#333" stroke-width="0.03" /><line 
    x1="24" y1="-0.65" 
    x2="24" y2="-0.9500000000000001" 
    stroke="#333" stroke-width="0.03" /><text x="20" y="-0.5" 
    text-anchor="middle" dominant-baseline="middle"
    font-size="0.5" fill="#333"
    transform="rotate(0, 20, -0.5)">8ft</text></g><g class="dimension-line"><line x1="15.2" y1="0" x2="15.2" y2="12" 
    stroke="#333" stroke-width="0.03" /><line 
    x1="15.049999999999999" y1="0" 
    x2="15.35" y2="0" 
    stroke="#333" stroke-width="0.03" /><line 
    x1="15.049999999999999" y1="12" 
    x2="15.35" y2="12" 
    stroke="#333" stroke-width="0.03" /><text x="14.899999999999999" y="6" 
    text-anchor="middle" dominant-baseline="middle"
    font-size="0.5" fill="#333"
    transform="rotate(90, 14.899999999999999, 6)">12ft</text></g></g></g></g></svg>