<svg viewBox="-2 -2 28 24" xmlns="http://www.w3.org/2000/svg" width="28" height="24" role="img" aria-roledescription="floorplan"><defs>
    <marker id="arrowhead" markerWidth="10" markerHeight="7" refX="9" refY="3.5" orient="auto">
      <polygon points="0 0, 10 3.5, 0 7" fill="#666" />
    </marker>
  </defs><style>
    /* Floor background */
    .floor-background {
      fill: #eed;
      stroke: #000;
      stroke-width: 0.1;
    }

    /* Room container */
    .room {
      /* Room styling handled by walls */
    }

    /* Wall styling */
    .wall {
      fill: #000;
      stroke: #000;
      stroke-width: 0.05;
    }

    /* Door styling */
    .door {
      fill: #fff;
      stroke: #000;
      stroke-width: 0.05;
    }

    /* Window styling */
    .window {
      fill: #fff;
      stroke: #000;
      stroke-width: 0.01;
    }

    /* Text styling */
    .room-name {
      fill: #000;
      font-family: Arial, sans-serif;
      font-size: 0.8;
    }

    .room-label {
      fill: #000;
      font-family: Arial, sans-serif;
      font-size: 0.8;
    }

    .room-size {
      fill: #666;
      font-family: Arial, sans-serif;
      font-size: 0.7;
    }
  </style><g class="floorplan" aria-label="Floor: GroundFloor"><rect x="0" y="0" 
    width="24" height="20" 
    class="floor-background" fill="#eed" stroke="black" stroke-width="0.1" /><g class="room" data-room="Vestibule"><rect x="0" y="0" width="6" height="6" 
    class="room-background" fill="#E0E0E0" stroke="none" /><rect x="0" y="0" width="6" height="0.2" 
      class="wall" fill="#000000" stroke="#000000" stroke-width="0.05" /><rect x="5.8" y="0" width="0.2" height="6" 
      class="wall" fill="#000000" stroke="#000000" stroke-width="0.05" /><rect x="0" y="5.8" width="6" height="0.2" 
      class="wall" fill="#000000" stroke="#000000" stroke-width="0.05" /><rect x="0" y="0" width="0.2" height="6" 
      class="wall" fill="#000000" stroke="#000000" stroke-width="0.05" /></g><g class="room" data-room="Bath"><rect x="6" y="0" width="6" height="6" 
    class="room-background" fill="#E0E0E0" stroke="none" /><rect x="6" y="0" width="6" height="0.2" 
      class="wall" fill="#000000" stroke="#000000" stroke-width="0.05" /><rect x="11.8" y="0" width="0.2" height="6" 
      class="wall" fill="#000000" stroke="#000000" stroke-width="0.05" /><rect x="6" y="5.8" width="6" height="0.2" 
      class="wall" fill="#000000" stroke="#000000" stroke-width="0.05" /><rect x="6" y="0" width="0.2" height="6" 
      class="wall" fill="#000000" stroke="#000000" stroke-width="0.05" /></g><g class="room" data-room="Kitchen"><rect x="12" y="0" width="12" height="6" 
    class="room-background" fill="#E0E0E0" stroke="none" /><rect x="12" y="0" width="12" height="0.2" 
      class="wall" fill="#000000" stroke="#000000" stroke-width="0.05" /><rect x="13.2" y="0.05" width="9.600000000000001" height="0.1" 
    class="window" fill="white" stroke="black" stroke-width="0.01" data-type="window" data-direction="top" /><rect x="23.8" y="0" width="0.2" height="6" 
      class="wall" fill="#000000" stroke="#000000" stroke-width="0.05" /><rect x="12" y="5.8" width="12" height="0.2" 
      class="wall" fill="#000000" stroke="#000000" stroke-width="0.05" /><rect x="12" y="0" width="0.2" height="6" 
      class="wall" fill="#000000" stroke="#000000" stroke-width="0.05" /></g><g class="room" data-room="Sleeping"><rect x="0" y="6" width="24" height="14" 
    class="room-background" fill="#E0E0E0" stroke="none" /><rect x="0" y="6" width="24" height="0.2" 
      class="wall" fill="#000000" stroke="#000000" stroke-width="0.05" /><rect x="23.8" y="6" width="0.2" height="14" 
      class="wall" fill="#000000" stroke="#000000" stroke-width="0.05" /><rect x="23.85" y="7.3999999999999995" width="0.1" height="11.200000000000001" 
    class="window" fill="white" stroke="black" stroke-width="0.01" data-type="window" data-direction="right" /><rect x="0" y="19.8" width="24" height="0.2" 
      class="wall" fill="#000000" stroke="#000000" stroke-width="0.05" /><rect x="2.3999999999999986" y="19.85" width="19.200000000000003" height="0.1" 
    class="window" fill="white" stroke="black" stroke-width="0.01" data-type="window" data-direction="bottom" /><rect x="0" y="6" width="0.2" height="14" 
      class="wall" fill="#000000" stroke="#000000" stroke-width="0.05" /><rect x="0.05" y="7.3999999999999995" width="0.1" height="11.200000000000001" 
    class="window" fill="white" stroke="black" stroke-width="0.01" data-type="window" data-direction="left" /></g><path d="M 5.8999999999999995 4 L 4.199999999999999 4 A 1.7 1.7 0 0 1 5.8999999999999995 2" fill="white" stroke="black" stroke-width="0.05" class="door" data-type="door" data-direction="right" data-swing="default" /><path d="M 0.5 5.8999999999999995 L 0.5 4.199999999999999 A 1.7 1.7 0 0 1 2.5 5.8999999999999995" fill="white" stroke="black" stroke-width="0.05" class="door" data-type="door" data-direction="bottom" data-swing="default" /><rect x="17" y="5.8" width="8" height="0.2" 
      fill="white" stroke="none" class="opening" data-type="opening" data-direction="bottom" /><g class="floor-circulation" aria-label="Circulation elements"></g><g class="room-labels" aria-label="Room labels"><text x="3" y="1.5" text-anchor="middle" dominant-baseline="middle" 
    class="room-name" font-size="0.8" fill="black">Vestibule</text><text x="3" y="2.5" text-anchor="middle" dominant-baseline="middle" 
      class="room-label" font-size="0.8">Entry</text><text x="3" y="3.5" text-anchor="middle" dominant-baseline="middle" 
    class="room-size" font-size="0.7" fill="gray">6 x 6</text><text x="3" y="4.5" text-anchor="middle" dominant-baseline="middle" 
      class="room-area" font-size="0.6" fill="#666">[36 sqft]</text><text x="9" y="1.5" text-anchor="middle" dominant-baseline="middle" 
    class="room-name" font-size="0.8" fill="black">Bath</text><text x="9" y="2.5" text-anchor="middle" dominant-baseline="middle" 
      class="room-label" font-size="0.8">Bath</text><text x="9" y="3.5" text-anchor="middle" dominant-baseline="middle" 
    class="room-size" font-size="0.7" fill="gray">6 x 6</text><text x="9" y="4.5" text-anchor="middle" dominant-baseline="middle" 
      class="room-area" font-size="0.6" fill="#666">[36 sqft]</text><text x="18" y="1.5" text-anchor="middle" dominant-baseline="middle" 
    class="room-name" font-size="0.8" fill="black">Kitchen</text><text x="18" y="2.5" text-anchor="middle" dominant-baseline="middle" 
      class="room-label" font-size="0.8">Kitchen</text><text x="18" y="3.5" text-anchor="middle" dominant-baseline="middle" 
    class="room-size" font-size="0.7" fill="gray">12 x 6</text><text x="18" y="4.5" text-anchor="middle" dominant-baseline="middle" 
      class="room-area" font-size="0.6" fill="#666">[72 sqft]</text><text x="12" y="11.5" text-anchor="middle" dominant-baseline="middle" 
    class="room-name" font-size="0.8" fill="black">Sleeping</text><text x="12" y="12.5" text-anchor="middle" dominant-baseline="middle" 
      class="room-label" font-size="0.8">Sleeping Area</text><text x="12" y="13.5" text-anchor="middle" dominant-baseline="middle" 
    class="room-size" font-size="0.7" fill="gray">24 x 14</text><text x="12" y="14.5" text-anchor="middle" dominant-baseline="middle" 
      class="room-area" font-size="0.6" fill="#666">[336 sqft]</text></g><g class="floor-dimensions"><g class="room-dimensions" data-room="Vestibule"><g class="dimension-line"><line x1="0" y1="-0.8" x2="6" y2="-0.8" 
    stroke="#333" stroke-width="0.03" /><line 
    x1="0" y1="-0.65" 
    x2="0" y2="-0.9500000000000001" 
    stroke="#333" stroke-width="0.03" /><line 
    x1="6" y1="-0.65" 
    x2="6" y2="-0.9500000000000001" 
    stroke="#333" stroke-width="0.03" /><text x="3" y="-0.5" 
    text-anchor="middle" dominant-baseline="middle"
    font-size="0.5" fill="#333"
    transform="rotate(0, 3, -0.5)">6undefined</text></g><g class="dimension-line"><line x1="-0.8" y1="0" x2="-0.8" y2="6" 
    stroke="#333" stroke-width="0.03" /><line 
    x1="-0.9500000000000001" y1="0" 
    x2="-0.65" y2="0" 
    stroke="#333" stroke-width="0.03" /><line 
    x1="-0.9500000000000001" y1="6" 
    x2="-0.65" y2="6" 
    stroke="#333" stroke-width="0.03" /><text x="-1.1" y="3" 
    text-anchor="middle" dominant-baseline="middle"
    font-size="0.5" fill="#333"
    transform="rotate(90, -1.1, 3)">6undefined</text></g></g><g class="room-dimensions" data-room="Bath"><g class="dimension-line"><line x1="6" y1="-0.8" x2="12" y2="-0.8" 
    stroke="#333" stroke-width="0.03" /><line 
    x1="6" y1="-0.65" 
    x2="6" y2="-0.9500000000000001" 
    stroke="#333" stroke-width="0.03" /><line 
    x1="12" y1="-0.65" 
    x2="12" y2="-0.9500000000000001" 
    stroke="#333" stroke-width="0.03" /><text x="9" y="-0.5" 
    text-anchor="middle" dominant-baseline="middle"
    font-size="0.5" fill="#333"
    transform="rotate(0, 9, -0.5)">6undefined</text></g><g class="dimension-line"><line x1="5.2" y1="0" x2="5.2" y2="6" 
    stroke="#333" stroke-width="0.03" /><line 
    x1="5.05" y1="0" 
    x2="5.3500000000000005" y2="0" 
    stroke="#333" stroke-width="0.03" /><line 
    x1="5.05" y1="6" 
    x2="5.3500000000000005" y2="6" 
    stroke="#333" stroke-width="0.03" /><text x="4.9" y="3" 
    text-anchor="middle" dominant-baseline="middle"
    font-size="0.5" fill="#333"
    transform="rotate(90, 4.9, 3)">6undefined</text></g></g><g class="room-dimensions" data-room="Kitchen"><g class="dimension-line"><line x1="12" y1="-0.8" x2="24" y2="-0.8" 
    stroke="#333" stroke-width="0.03" /><line 
    x1="12" y1="-0.65" 
    x2="12" y2="-0.9500000000000001" 
    stroke="#333" stroke-width="0.03" /><line 
    x1="24" y1="-0.65" 
    x2="24" y2="-0.9500000000000001" 
    stroke="#333" stroke-width="0.03" /><text x="18" y="-0.5" 
    text-anchor="middle" dominant-baseline="middle"
    font-size="0.5" fill="#333"
    transform="rotate(0, 18, -0.5)">12undefined</text></g><g class="dimension-line"><line x1="11.2" y1="0" x2="11.2" y2="6" 
    stroke="#333" stroke-width="0.03" /><line 
    x1="11.049999999999999" y1="0" 
    x2="11.35" y2="0" 
    stroke="#333" stroke-width="0.03" /><line 
    x1="11.049999999999999" y1="6" 
    x2="11.35" y2="6" 
    stroke="#333" stroke-width="0.03" /><text x="10.899999999999999" y="3" 
    text-anchor="middle" dominant-baseline="middle"
    font-size="0.5" fill="#333"
    transform="rotate(90, 10.899999999999999, 3)">6undefined</text></g></g><g class="room-dimensions" data-room="Sleeping"><g class="dimension-line"><line x1="0" y1="5.2" x2="24" y2="5.2" 
    stroke="#333" stroke-width="0.03" /><line 
    x1="0" y1="5.3500000000000005" 
    x2="0" y2="5.05" 
    stroke="#333" stroke-width="0.03" /><line 
    x1="24" y1="5.3500000000000005" 
    x2="24" y2="5.05" 
    stroke="#333" stroke-width="0.03" /><text x="12" y="5.5" 
    text-anchor="middle" dominant-baseline="middle"
    font-size="0.5" fill="#333"
    transform="rotate(0, 12, 5.5)">24undefined</text></g><g class="dimension-line"><line x1="-0.8" y1="6" x2="-0.8" y2="20" 
    stroke="#333" stroke-width="0.03" /><line 
    x1="-0.9500000000000001" y1="6" 
    x2="-0.65" y2="6" 
    stroke="#333" stroke-width="0.03" /><line 
    x1="-0.9500000000000001" y1="20" 
    x2="-0.65" y2="20" 
    stroke="#333" stroke-width="0.03" /><text x="-1.1" y="13" 
    text-anchor="middle" dominant-baseline="middle"
    font-size="0.5" fill="#333"
    transform="rotate(90, -1.1, 13)">14undefined</text></g></g></g></g></svg>