<svg viewBox="-2 -2 44 24" xmlns="http://www.w3.org/2000/svg" width="44" height="24" role="img" aria-roledescription="floorplan"><defs>
    <marker id="arrowhead" markerWidth="10" markerHeight="7" refX="9" refY="3.5" orient="auto">
      <polygon points="0 0, 10 3.5, 0 7" fill="#666" />
    </marker>
  </defs><style>
    /* Floor background */
    .floor-background {
      fill: #eed;
      stroke: #000;
      stroke-width: 0.1;
    }

    /* Room container */
    .room {
      /* Room styling handled by walls */
    }

    /* Wall styling */
    .wall {
      fill: #000;
      stroke: #000;
      stroke-width: 0.05;
    }

    /* Door styling */
    .door {
      fill: #fff;
      stroke: #000;
      stroke-width: 0.05;
    }

    /* Window styling */
    .window {
      fill: #fff;
      stroke: #000;
      stroke-width: 0.01;
    }

    /* Text styling */
    .room-name {
      fill: #000;
      font-family: Arial, sans-serif;
      font-size: 0.8;
    }

    .room-label {
      fill: #000;
      font-family: Arial, sans-serif;
      font-size: 0.8;
    }

    .room-size {
      fill: #666;
      font-family: Arial, sans-serif;
      font-size: 0.7;
    }
  </style><g class="floorplan" aria-label="Floor: Ground"><rect x="0" y="0" 
    width="40" height="20" 
    class="floor-background" fill="#eed" stroke="black" stroke-width="0.1" /><g class="room" data-room="Reception"><rect x="0" y="0" width="16" height="12" 
    class="room-background" fill="#E0E0E0" stroke="none" /><rect x="0" y="0" width="16" height="0.2" 
      class="wall" fill="#000000" stroke="#000000" stroke-width="0.05" /><rect x="1.5999999999999996" y="0.05" width="12.8" height="0.1" 
    class="window" fill="white" stroke="black" stroke-width="0.01" data-type="window" data-direction="top" /><rect x="15.8" y="0" width="0.2" height="12" 
      class="wall" fill="#000000" stroke="#000000" stroke-width="0.05" /><rect x="0" y="11.8" width="16" height="0.2" 
      class="wall" fill="#000000" stroke="#000000" stroke-width="0.05" /><rect x="0" y="0" width="0.2" height="12" 
      class="wall" fill="#000000" stroke="#000000" stroke-width="0.05" /><rect x="0.05" y="1.1999999999999993" width="0.1" height="9.600000000000001" 
    class="window" fill="white" stroke="black" stroke-width="0.01" data-type="window" data-direction="left" /></g><g class="room" data-room="StairCore"><rect x="16" y="0" width="10" height="12" 
    class="room-background" fill="#E0E0E0" stroke="none" /><rect x="16" y="0" width="10" height="0.2" 
      class="wall" fill="#000000" stroke="#000000" stroke-width="0.05" /><rect x="25.8" y="0" width="0.2" height="12" 
      class="wall" fill="#000000" stroke="#000000" stroke-width="0.05" /><rect x="16" y="11.8" width="10" height="0.2" 
      class="wall" fill="#000000" stroke="#000000" stroke-width="0.05" /><rect x="16" y="0" width="0.2" height="12" 
      class="wall" fill="#000000" stroke="#000000" stroke-width="0.05" /></g><g class="room" data-room="Conf"><rect x="26" y="0" width="14" height="12" 
    class="room-background" fill="#E0E0E0" stroke="none" /><rect x="26" y="0" width="14" height="0.2" 
      class="wall" fill="#000000" stroke="#000000" stroke-width="0.05" /><rect x="27.4" y="0.05" width="11.200000000000001" height="0.1" 
    class="window" fill="white" stroke="black" stroke-width="0.01" data-type="window" data-direction="top" /><rect x="39.8" y="0" width="0.2" height="12" 
      class="wall" fill="#000000" stroke="#000000" stroke-width="0.05" /><rect x="26" y="11.8" width="14" height="0.2" 
      class="wall" fill="#000000" stroke="#000000" stroke-width="0.05" /><rect x="26" y="0" width="0.2" height="12" 
      class="wall" fill="#000000" stroke="#000000" stroke-width="0.05" /></g><g class="room" data-room="Lobby"><rect x="0" y="12" width="28" height="8" 
    class="room-background" fill="#E0E0E0" stroke="none" /><rect x="0" y="12" width="28" height="0.2" 
      class="wall" fill="#000000" stroke="#000000" stroke-width="0.05" /><rect x="27.8" y="12" width="0.2" height="8" 
      class="wall" fill="#000000" stroke="#000000" stroke-width="0.05" /><rect x="0" y="19.8" width="28" height="0.2" 
      class="wall" fill="#000000" stroke="#000000" stroke-width="0.05" /><rect x="2.799999999999999" y="19.85" width="22.400000000000002" height="0.1" 
    class="window" fill="white" stroke="black" stroke-width="0.01" data-type="window" data-direction="bottom" /><rect x="0" y="12" width="0.2" height="8" 
      class="wall" fill="#000000" stroke="#000000" stroke-width="0.05" /><rect x="0.05" y="12.8" width="0.1" height="6.4" 
    class="window" fill="white" stroke="black" stroke-width="0.01" data-type="window" data-direction="left" /></g><g class="room" data-room="RestroomA"><rect x="28" y="12" width="12" height="8" 
    class="room-background" fill="#E0E0E0" stroke="none" /><rect x="28" y="12" width="12" height="0.2" 
      class="wall" fill="#000000" stroke="#000000" stroke-width="0.05" /><rect x="39.8" y="12" width="0.2" height="8" 
      class="wall" fill="#000000" stroke="#000000" stroke-width="0.05" /><rect x="28" y="19.8" width="12" height="0.2" 
      class="wall" fill="#000000" stroke="#000000" stroke-width="0.05" /><rect x="29.2" y="19.85" width="9.600000000000001" height="0.1" 
    class="window" fill="white" stroke="black" stroke-width="0.01" data-type="window" data-direction="bottom" /><rect x="28" y="12" width="0.2" height="8" 
      class="wall" fill="#000000" stroke="#000000" stroke-width="0.05" /></g><rect x="0" y="11.8" width="8" height="0.2" 
      fill="white" stroke="none" class="opening" data-type="opening" data-direction="bottom" /><path d="M 27.900000000000002 17 L 26.200000000000003 17 A 1.7 1.7 0 0 1 27.900000000000002 15" fill="white" stroke="black" stroke-width="0.05" class="door" data-type="door" data-direction="right" data-swing="default" /><path d="M 15.9 7 L 14.200000000000001 7 A 1.7 1.7 0 0 1 15.9 5" fill="white" stroke="black" stroke-width="0.05" class="door" data-type="door" data-direction="right" data-swing="default" /><path d="M 25.900000000000002 7 L 24.200000000000003 7 A 1.7 1.7 0 0 1 25.900000000000002 5" fill="white" stroke="black" stroke-width="0.05" class="door" data-type="door" data-direction="right" data-swing="default" /><g class="floor-circulation" aria-label="Circulation elements"><g class="stair" data-name="MainStair" transform="translate(17, 1)"><rect x="0" y="0" width="4" height="16.500000527999998" 
        fill="#f0f0f0" stroke="#666" stroke-width="0.05" /><line x1="0" y1="0.9166666959999998" x2="4" y2="0.9166666959999998" 
                stroke="#666" stroke-width="0.025" /><line x1="0" y1="1.8333333919999997" x2="4" y2="1.8333333919999997" 
                stroke="#666" stroke-width="0.025" /><line x1="0" y1="2.7500000879999993" x2="4" y2="2.7500000879999993" 
                stroke="#666" stroke-width="0.025" /><line x1="0" y1="3.6666667839999993" x2="4" y2="3.6666667839999993" 
                stroke="#666" stroke-width="0.025" /><line x1="0" y1="4.583333479999999" x2="4" y2="4.583333479999999" 
                stroke="#666" stroke-width="0.025" /><line x1="0" y1="5.500000175999999" x2="4" y2="5.500000175999999" 
                stroke="#666" stroke-width="0.025" /><line x1="0" y1="6.416666871999999" x2="4" y2="6.416666871999999" 
                stroke="#666" stroke-width="0.025" /><line x1="0" y1="7.333333567999999" x2="4" y2="7.333333567999999" 
                stroke="#666" stroke-width="0.025" /><line x1="0" y1="8.250000263999999" x2="4" y2="8.250000263999999" 
                stroke="#666" stroke-width="0.025" /><line x1="0" y1="9.166666959999999" x2="4" y2="9.166666959999999" 
                stroke="#666" stroke-width="0.025" /><line x1="0" y1="10.083333655999999" x2="4" y2="10.083333655999999" 
                stroke="#666" stroke-width="0.025" /><line x1="0" y1="11.000000351999997" x2="4" y2="11.000000351999997" 
                stroke="#666" stroke-width="0.025" /><line x1="0" y1="11.916667047999997" x2="4" y2="11.916667047999997" 
                stroke="#666" stroke-width="0.025" /><line x1="0" y1="12.833333743999997" x2="4" y2="12.833333743999997" 
                stroke="#666" stroke-width="0.025" /><line x1="0" y1="13.750000439999997" x2="4" y2="13.750000439999997" 
                stroke="#666" stroke-width="0.025" /><line x1="0" y1="14.666667135999997" x2="4" y2="14.666667135999997" 
                stroke="#666" stroke-width="0.025" /><line x1="0" y1="15.583333831999997" x2="4" y2="15.583333831999997" 
                stroke="#666" stroke-width="0.025" /><line x1="2" y1="11.5500003696" x2="2" y2="4.950000158399999" 
            stroke="#666" stroke-width="0.1" /><polygon points="2,4.950000158399999 1.7,5.250000158399999 2.3,5.250000158399999" 
            fill="#666" /><text x="2" y="17.000000527999998" 
            text-anchor="middle" font-size="0.4" fill="#333">Stair</text></g><g class="lift" data-name="MainLift" transform="translate(22, 1)"><rect x="0" y="0" width="4" height="5" 
        fill="#f0f0f0" stroke="#666" stroke-width="0.05" /><line x1="0" y1="0" x2="4" y2="5" 
        stroke="#666" stroke-width="0.05" /><line x1="4" y1="0" x2="0" y2="5" 
        stroke="#666" stroke-width="0.05" /><rect x="0.8" y="4.85" width="2.4" height="0.15" 
        fill="#666" /><text x="2" y="2.65" 
        text-anchor="middle" font-size="0.6" font-weight="bold" fill="#666">E</text><text x="2" y="5.5" 
            text-anchor="middle" font-size="0.4" fill="#333">Lift</text></g></g><g class="room-labels" aria-label="Room labels"><text x="8" y="5" text-anchor="middle" dominant-baseline="middle" 
    class="room-name" font-size="0.8" fill="black">Reception</text><text x="8" y="6" text-anchor="middle" dominant-baseline="middle" 
      class="room-label" font-size="0.8">Reception</text><text x="8" y="7" text-anchor="middle" dominant-baseline="middle" 
    class="room-size" font-size="0.7" fill="gray">16 x 12</text><text x="21" y="5" text-anchor="middle" dominant-baseline="middle" 
    class="room-name" font-size="0.8" fill="black">StairCore</text><text x="21" y="6" text-anchor="middle" dominant-baseline="middle" 
      class="room-label" font-size="0.8">Stair / Lift</text><text x="21" y="7" text-anchor="middle" dominant-baseline="middle" 
    class="room-size" font-size="0.7" fill="gray">10 x 12</text><text x="33" y="5" text-anchor="middle" dominant-baseline="middle" 
    class="room-name" font-size="0.8" fill="black">Conf</text><text x="33" y="6" text-anchor="middle" dominant-baseline="middle" 
      class="room-label" font-size="0.8">Conference</text><text x="33" y="7" text-anchor="middle" dominant-baseline="middle" 
    class="room-size" font-size="0.7" fill="gray">14 x 12</text><text x="14" y="15" text-anchor="middle" dominant-baseline="middle" 
    class="room-name" font-size="0.8" fill="black">Lobby</text><text x="14" y="16" text-anchor="middle" dominant-baseline="middle" 
      class="room-label" font-size="0.8">Lobby</text><text x="14" y="17" text-anchor="middle" dominant-baseline="middle" 
    class="room-size" font-size="0.7" fill="gray">28 x 8</text><text x="34" y="15" text-anchor="middle" dominant-baseline="middle" 
    class="room-name" font-size="0.8" fill="black">RestroomA</text><text x="34" y="16" text-anchor="middle" dominant-baseline="middle" 
      class="room-label" font-size="0.8">Restroom</text><text x="34" y="17" text-anchor="middle" dominant-baseline="middle" 
    class="room-size" font-size="0.7" fill="gray">12 x 8</text></g></g></svg>