<svg viewBox="-2 -2 40 20" xmlns="http://www.w3.org/2000/svg" width="40" height="20" role="img" aria-roledescription="floorplan"><defs>
    <marker id="arrowhead" markerWidth="10" markerHeight="7" refX="9" refY="3.5" orient="auto">
      <polygon points="0 0, 10 3.5, 0 7" fill="#666" />
    </marker>
  </defs><style>
    /* Floor background */
    .floor-background {
      fill: #eed;
      stroke: #000;
      stroke-width: 0.1;
    }

    /* Room container */
    .room {
      /* Room styling handled by walls */
    }

    /* Wall styling */
    .wall {
      fill: #000;
      stroke: #000;
      stroke-width: 0.05;
    }

    /* Door styling */
    .door {
      fill: #fff;
      stroke: #000;
      stroke-width: 0.05;
    }

    /* Window styling */
    .window {
      fill: #fff;
      stroke: #000;
      stroke-width: 0.01;
    }

    /* Text styling */
    .room-name {
      fill: #000;
      font-family: Arial, sans-serif;
      font-size: 0.8;
    }

    .room-label {
      fill: #000;
      font-family: Arial, sans-serif;
      font-size: 0.8;
    }

    .room-size {
      fill: #666;
      font-family: Arial, sans-serif;
      font-size: 0.7;
    }
  </style><g class="floorplan" aria-label="Floor: GroundFloor"><rect x="0" y="0" 
    width="36" height="16" 
    class="floor-background" fill="#eed" stroke="black" stroke-width="0.1" /><g class="room" data-room="Bath"><rect x="0" y="0" width="8" height="8" 
    class="room-background" fill="#E0E0E0" stroke="none" /><rect x="0" y="0" width="8" height="0.2" 
      class="wall" fill="#000000" stroke="#000000" stroke-width="0.05" /><rect x="7.8" y="0" width="0.2" height="8" 
      class="wall" fill="#000000" stroke="#000000" stroke-width="0.05" /><path d="M 7.8999999999999995 8 L 1.0999999999999996 8 A 6.8 6.8 0 0 1 7.8999999999999995 0" fill="white" stroke="black" stroke-width="0.05" class="door" data-type="door" data-direction="right" data-swing="default" /><rect x="0" y="7.8" width="8" height="0.2" 
      class="wall" fill="#000000" stroke="#000000" stroke-width="0.05" /><rect x="0" y="0" width="0.2" height="8" 
      class="wall" fill="#000000" stroke="#000000" stroke-width="0.05" /><rect x="0.05" y="0.7999999999999998" width="0.1" height="6.4" 
    class="window" fill="white" stroke="black" stroke-width="0.01" data-type="window" data-direction="left" /></g><g class="room" data-room="Living"><rect x="8" y="0" width="16" height="12" 
    class="room-background" fill="#E0E0E0" stroke="none" /><rect x="8" y="0" width="16" height="0.2" 
      class="wall" fill="#000000" stroke="#000000" stroke-width="0.05" /><rect x="9.6" y="0.05" width="12.8" height="0.1" 
    class="window" fill="white" stroke="black" stroke-width="0.01" data-type="window" data-direction="top" /><rect x="23.8" y="0" width="0.2" height="12" 
      class="wall" fill="#000000" stroke="#000000" stroke-width="0.05" /><rect x="8" y="11.8" width="16" height="0.2" 
      class="wall" fill="#000000" stroke="#000000" stroke-width="0.05" /><rect x="9.6" y="11.85" width="12.8" height="0.1" 
    class="window" fill="white" stroke="black" stroke-width="0.01" data-type="window" data-direction="bottom" /><rect x="8" y="0" width="0.2" height="12" 
      class="wall" fill="#000000" stroke="#000000" stroke-width="0.05" /></g><g class="room" data-room="Bedroom"><rect x="24" y="0" width="12" height="12" 
    class="room-background" fill="#E0E0E0" stroke="none" /><rect x="24" y="0" width="12" height="0.2" 
      class="wall" fill="#000000" stroke="#000000" stroke-width="0.05" /><rect x="35.8" y="0" width="0.2" height="12" 
      class="wall" fill="#000000" stroke="#000000" stroke-width="0.05" /><rect x="24" y="11.8" width="12" height="0.2" 
      class="wall" fill="#000000" stroke="#000000" stroke-width="0.05" /><rect x="24" y="0" width="0.2" height="12" 
      class="wall" fill="#000000" stroke="#000000" stroke-width="0.05" /></g><g class="room" data-room="Kitchen"><rect x="0" y="8" width="10" height="8" 
    class="room-background" fill="#E0E0E0" stroke="none" /><rect x="0" y="8" width="10" height="0.2" 
      class="wall" fill="#000000" stroke="#000000" stroke-width="0.05" /><rect x="9.8" y="8" width="0.2" height="8" 
      class="wall" fill="#000000" stroke="#000000" stroke-width="0.05" /><rect x="0" y="15.8" width="10" height="0.2" 
      class="wall" fill="#000000" stroke="#000000" stroke-width="0.05" /><rect x="1" y="15.85" width="8" height="0.1" 
    class="window" fill="white" stroke="black" stroke-width="0.01" data-type="window" data-direction="bottom" /><rect x="0" y="8" width="0.2" height="8" 
      class="wall" fill="#000000" stroke="#000000" stroke-width="0.05" /><rect x="0.05" y="8.8" width="0.1" height="6.4" 
    class="window" fill="white" stroke="black" stroke-width="0.01" data-type="window" data-direction="left" /></g><path d="M 7.8999999999999995 5 L 6.199999999999999 5 A 1.7 1.7 0 0 1 7.8999999999999995 3" fill="white" stroke="black" stroke-width="0.05" class="door" data-type="door" data-direction="right" data-swing="default" /><path d="M 23.900000000000002 7 L 22.200000000000003 7 A 1.7 1.7 0 0 1 23.900000000000002 5" fill="white" stroke="black" stroke-width="0.05" class="door" data-type="door" data-direction="right" data-swing="default" /><path d="M 8 8.1 L 8 6.3999999999999995 A 1.7 1.7 0 0 1 10 8.1" fill="white" stroke="black" stroke-width="0.05" class="door" data-type="door" data-direction="bottom" data-swing="default" /><g class="floor-circulation" aria-label="Circulation elements"></g><g class="room-labels" aria-label="Room labels"><text x="4" y="3" text-anchor="middle" dominant-baseline="middle" 
    class="room-name" font-size="0.8" fill="black">Bath</text><text x="4" y="4" text-anchor="middle" dominant-baseline="middle" 
      class="room-label" font-size="0.8">Bath</text><text x="4" y="5" text-anchor="middle" dominant-baseline="middle" 
    class="room-size" font-size="0.7" fill="gray">8 x 8</text><text x="16" y="5" text-anchor="middle" dominant-baseline="middle" 
    class="room-name" font-size="0.8" fill="black">Living</text><text x="16" y="6" text-anchor="middle" dominant-baseline="middle" 
      class="room-label" font-size="0.8">Living</text><text x="16" y="7" text-anchor="middle" dominant-baseline="middle" 
    class="room-size" font-size="0.7" fill="gray">16 x 12</text><text x="30" y="5" text-anchor="middle" dominant-baseline="middle" 
    class="room-name" font-size="0.8" fill="black">Bedroom</text><text x="30" y="6" text-anchor="middle" dominant-baseline="middle" 
      class="room-label" font-size="0.8">Bedroom</text><text x="30" y="7" text-anchor="middle" dominant-baseline="middle" 
    class="room-size" font-size="0.7" fill="gray">12 x 12</text><text x="5" y="11" text-anchor="middle" dominant-baseline="middle" 
    class="room-name" font-size="0.8" fill="black">Kitchen</text><text x="5" y="12" text-anchor="middle" dominant-baseline="middle" 
      class="room-label" font-size="0.8">Kitchen</text><text x="5" y="13" text-anchor="middle" dominant-baseline="middle" 
    class="room-size" font-size="0.7" fill="gray">10 x 8</text></g></g></svg>