<svg viewBox="-2 -2 40 34" xmlns="http://www.w3.org/2000/svg" width="40" height="34" role="img" aria-roledescription="floorplan"><defs>
    <marker id="arrowhead" markerWidth="10" markerHeight="7" refX="9" refY="3.5" orient="auto">
      <polygon points="0 0, 10 3.5, 0 7" fill="#666" />
    </marker>
  </defs><style>
    /* Floor background */
    .floor-background {
      fill: #eed;
      stroke: #000;
      stroke-width: 0.1;
    }

    /* Room container */
    .room {
      /* Room styling handled by walls */
    }

    /* Wall styling */
    .wall {
      fill: #000;
      stroke: #000;
      stroke-width: 0.05;
    }

    /* Door styling */
    .door {
      fill: #fff;
      stroke: #000;
      stroke-width: 0.05;
    }

    /* Window styling */
    .window {
      fill: #fff;
      stroke: #000;
      stroke-width: 0.01;
    }

    /* Text styling */
    .room-name {
      fill: #000;
      font-family: Arial, sans-serif;
      font-size: 0.8;
    }

    .room-label {
      fill: #000;
      font-family: Arial, sans-serif;
      font-size: 0.8;
    }

    .room-size {
      fill: #666;
      font-family: Arial, sans-serif;
      font-size: 0.7;
    }
  </style><g class="floorplan" aria-label="Floor: GroundFloor"><rect x="0" y="0" 
    width="36" height="30" 
    class="floor-background" fill="#eed" stroke="black" stroke-width="0.1" /><g class="room" data-room="SalesFloor"><rect x="0" y="0" width="36" height="22" 
    class="room-background" fill="#E0E0E0" stroke="none" /><rect x="0" y="0" width="36" height="0.2" 
      class="wall" fill="#000000" stroke="#000000" stroke-width="0.05" /><rect x="3.5999999999999996" y="0.05" width="28.8" height="0.1" 
    class="window" fill="white" stroke="black" stroke-width="0.01" data-type="window" data-direction="top" /><rect x="35.8" y="0" width="0.2" height="22" 
      class="wall" fill="#000000" stroke="#000000" stroke-width="0.05" /><rect x="0" y="21.8" width="36" height="0.2" 
      class="wall" fill="#000000" stroke="#000000" stroke-width="0.05" /><rect x="0" y="0" width="0.2" height="22" 
      class="wall" fill="#000000" stroke="#000000" stroke-width="0.05" /><rect x="0.05" y="2.1999999999999993" width="0.1" height="17.6" 
    class="window" fill="white" stroke="black" stroke-width="0.01" data-type="window" data-direction="left" /></g><g class="room" data-room="Checkout"><rect x="0" y="22" width="10" height="8" 
    class="room-background" fill="#E0E0E0" stroke="none" /><rect x="0" y="22" width="10" height="0.2" 
      class="wall" fill="#000000" stroke="#000000" stroke-width="0.05" /><rect x="9.8" y="22" width="0.2" height="8" 
      class="wall" fill="#000000" stroke="#000000" stroke-width="0.05" /><rect x="0" y="29.8" width="10" height="0.2" 
      class="wall" fill="#000000" stroke="#000000" stroke-width="0.05" /><rect x="0" y="22" width="0.2" height="8" 
      class="wall" fill="#000000" stroke="#000000" stroke-width="0.05" /></g><g class="room" data-room="Storage"><rect x="10" y="22" width="12" height="8" 
    class="room-background" fill="#E0E0E0" stroke="none" /><rect x="10" y="22" width="12" height="0.2" 
      class="wall" fill="#000000" stroke="#000000" stroke-width="0.05" /><rect x="21.8" y="22" width="0.2" height="8" 
      class="wall" fill="#000000" stroke="#000000" stroke-width="0.05" /><rect x="10" y="29.8" width="12" height="0.2" 
      class="wall" fill="#000000" stroke="#000000" stroke-width="0.05" /><rect x="10" y="22" width="0.2" height="8" 
      class="wall" fill="#000000" stroke="#000000" stroke-width="0.05" /></g><g class="room" data-room="Bath"><rect x="22" y="22" width="6" height="8" 
    class="room-background" fill="#E0E0E0" stroke="none" /><rect x="22" y="22" width="6" height="0.2" 
      class="wall" fill="#000000" stroke="#000000" stroke-width="0.05" /><rect x="27.8" y="22" width="0.2" height="8" 
      class="wall" fill="#000000" stroke="#000000" stroke-width="0.05" /><rect x="22" y="29.8" width="6" height="0.2" 
      class="wall" fill="#000000" stroke="#000000" stroke-width="0.05" /><rect x="22.6" y="29.85" width="4.800000000000001" height="0.1" 
    class="window" fill="white" stroke="black" stroke-width="0.01" data-type="window" data-direction="bottom" /><rect x="22" y="22" width="0.2" height="8" 
      class="wall" fill="#000000" stroke="#000000" stroke-width="0.05" /></g><g class="room" data-room="Break"><rect x="28" y="22" width="8" height="8" 
    class="room-background" fill="#E0E0E0" stroke="none" /><rect x="28" y="22" width="8" height="0.2" 
      class="wall" fill="#000000" stroke="#000000" stroke-width="0.05" /><rect x="35.8" y="22" width="0.2" height="8" 
      class="wall" fill="#000000" stroke="#000000" stroke-width="0.05" /><rect x="28" y="29.8" width="8" height="0.2" 
      class="wall" fill="#000000" stroke="#000000" stroke-width="0.05" /><rect x="28.8" y="29.85" width="6.4" height="0.1" 
    class="window" fill="white" stroke="black" stroke-width="0.01" data-type="window" data-direction="bottom" /><rect x="28" y="22" width="0.2" height="8" 
      class="wall" fill="#000000" stroke="#000000" stroke-width="0.05" /></g><rect x="-2.6" y="21.8" width="8" height="0.2" 
      fill="white" stroke="none" class="opening" data-type="opening" data-direction="bottom" /><path d="M 15 21.900000000000002 L 15 20.200000000000003 A 1.7 1.7 0 0 1 17 21.900000000000002" fill="white" stroke="black" stroke-width="0.05" class="door" data-type="door" data-direction="bottom" data-swing="default" /><path d="M 9.9 27 L 8.200000000000001 27 A 1.7 1.7 0 0 1 9.9 25" fill="white" stroke="black" stroke-width="0.05" class="door" data-type="door" data-direction="right" data-swing="default" /><path d="M 21.900000000000002 27 L 20.200000000000003 27 A 1.7 1.7 0 0 1 21.900000000000002 25" fill="white" stroke="black" stroke-width="0.05" class="door" data-type="door" data-direction="right" data-swing="default" /><path d="M 27.900000000000002 27 L 26.200000000000003 27 A 1.7 1.7 0 0 1 27.900000000000002 25" fill="white" stroke="black" stroke-width="0.05" class="door" data-type="door" data-direction="right" data-swing="default" /><g class="floor-circulation" aria-label="Circulation elements"></g><g class="room-labels" aria-label="Room labels"><text x="18" y="10" text-anchor="middle" dominant-baseline="middle" 
    class="room-name" font-size="0.8" fill="black">SalesFloor</text><text x="18" y="11" text-anchor="middle" dominant-baseline="middle" 
      class="room-label" font-size="0.8">Sales</text><text x="18" y="12" text-anchor="middle" dominant-baseline="middle" 
    class="room-size" font-size="0.7" fill="gray">36 x 22</text><text x="5" y="25" text-anchor="middle" dominant-baseline="middle" 
    class="room-name" font-size="0.8" fill="black">Checkout</text><text x="5" y="26" text-anchor="middle" dominant-baseline="middle" 
      class="room-label" font-size="0.8">Checkout</text><text x="5" y="27" text-anchor="middle" dominant-baseline="middle" 
    class="room-size" font-size="0.7" fill="gray">10 x 8</text><text x="16" y="25" text-anchor="middle" dominant-baseline="middle" 
    class="room-name" font-size="0.8" fill="black">Storage</text><text x="16" y="26" text-anchor="middle" dominant-baseline="middle" 
      class="room-label" font-size="0.8">Storage</text><text x="16" y="27" text-anchor="middle" dominant-baseline="middle" 
    class="room-size" font-size="0.7" fill="gray">12 x 8</text><text x="25" y="25" text-anchor="middle" dominant-baseline="middle" 
    class="room-name" font-size="0.8" fill="black">Bath</text><text x="25" y="26" text-anchor="middle" dominant-baseline="middle" 
      class="room-label" font-size="0.8">Bath</text><text x="25" y="27" text-anchor="middle" dominant-baseline="middle" 
    class="room-size" font-size="0.7" fill="gray">6 x 8</text><text x="32" y="25" text-anchor="middle" dominant-baseline="middle" 
    class="room-name" font-size="0.8" fill="black">Break</text><text x="32" y="26" text-anchor="middle" dominant-baseline="middle" 
      class="room-label" font-size="0.8">Break</text><text x="32" y="27" text-anchor="middle" dominant-baseline="middle" 
    class="room-size" font-size="0.7" fill="gray">8 x 8</text></g></g></svg>