<svg viewBox="-2 -2 50 32" xmlns="http://www.w3.org/2000/svg" width="50" height="32" role="img" aria-roledescription="floorplan"><defs>
    <marker id="arrowhead" markerWidth="10" markerHeight="7" refX="9" refY="3.5" orient="auto">
      <polygon points="0 0, 10 3.5, 0 7" fill="#666" />
    </marker>
  </defs><style>
    /* Floor background */
    .floor-background {
      fill: #eed;
      stroke: #000;
      stroke-width: 0.1;
    }

    /* Room container */
    .room {
      /* Room styling handled by walls */
    }

    /* Wall styling */
    .wall {
      fill: #000;
      stroke: #000;
      stroke-width: 0.05;
    }

    /* Door styling */
    .door {
      fill: #fff;
      stroke: #000;
      stroke-width: 0.05;
    }

    /* Window styling */
    .window {
      fill: #fff;
      stroke: #000;
      stroke-width: 0.01;
    }

    /* Text styling */
    .room-name {
      fill: #000;
      font-family: Arial, sans-serif;
      font-size: 0.8;
    }

    .room-label {
      fill: #000;
      font-family: Arial, sans-serif;
      font-size: 0.8;
    }

    .room-size {
      fill: #666;
      font-family: Arial, sans-serif;
      font-size: 0.7;
    }
  </style><g class="floorplan" aria-label="Floor: GroundFloor"><rect x="0" y="0" 
    width="46" height="28" 
    class="floor-background" fill="#eed" stroke="black" stroke-width="0.1" /><g class="room" data-room="Foyer"><rect x="0" y="0" width="8" height="12" 
    class="room-background" fill="#E0E0E0" stroke="none" /><rect x="0" y="0" width="8" height="0.2" 
      class="wall" fill="#000000" stroke="#000000" stroke-width="0.05" /><rect x="7.8" y="0" width="0.2" height="12" 
      class="wall" fill="#000000" stroke="#000000" stroke-width="0.05" /><rect x="0" y="11.8" width="8" height="0.2" 
      class="wall" fill="#000000" stroke="#000000" stroke-width="0.05" /><rect x="0" y="0" width="0.2" height="12" 
      class="wall" fill="#000000" stroke="#000000" stroke-width="0.05" /><rect x="0.05" y="1.1999999999999993" width="0.1" height="9.600000000000001" 
    class="window" fill="white" stroke="black" stroke-width="0.01" data-type="window" data-direction="left" /></g><g class="room" data-room="Living"><rect x="8" y="0" width="16" height="12" 
    class="room-background" fill="#E0E0E0" stroke="none" /><rect x="8" y="0" width="16" height="0.2" 
      class="wall" fill="#000000" stroke="#000000" stroke-width="0.05" /><rect x="9.6" y="0.05" width="12.8" height="0.1" 
    class="window" fill="white" stroke="black" stroke-width="0.01" data-type="window" data-direction="top" /><rect x="23.8" y="0" width="0.2" height="12" 
      class="wall" fill="#000000" stroke="#000000" stroke-width="0.05" /><rect x="8" y="11.8" width="16" height="0.2" 
      class="wall" fill="#000000" stroke="#000000" stroke-width="0.05" /><rect x="8" y="0" width="0.2" height="12" 
      class="wall" fill="#000000" stroke="#000000" stroke-width="0.05" /></g><g class="room" data-room="Kitchen"><rect x="24" y="0" width="12" height="12" 
    class="room-background" fill="#E0E0E0" stroke="none" /><rect x="24" y="0" width="12" height="0.2" 
      class="wall" fill="#000000" stroke="#000000" stroke-width="0.05" /><rect x="25.2" y="0.05" width="9.600000000000001" height="0.1" 
    class="window" fill="white" stroke="black" stroke-width="0.01" data-type="window" data-direction="top" /><rect x="35.8" y="0" width="0.2" height="12" 
      class="wall" fill="#000000" stroke="#000000" stroke-width="0.05" /><rect x="24" y="11.8" width="12" height="0.2" 
      class="wall" fill="#000000" stroke="#000000" stroke-width="0.05" /><rect x="24" y="0" width="0.2" height="12" 
      class="wall" fill="#000000" stroke="#000000" stroke-width="0.05" /></g><g class="room" data-room="MasterBath"><rect x="36" y="0" width="10" height="12" 
    class="room-background" fill="#E0E0E0" stroke="none" /><rect x="36" y="0" width="10" height="0.2" 
      class="wall" fill="#000000" stroke="#000000" stroke-width="0.05" /><rect x="37" y="0.05" width="8" height="0.1" 
    class="window" fill="white" stroke="black" stroke-width="0.01" data-type="window" data-direction="top" /><rect x="45.8" y="0" width="0.2" height="12" 
      class="wall" fill="#000000" stroke="#000000" stroke-width="0.05" /><rect x="45.85" y="1.1999999999999993" width="0.1" height="9.600000000000001" 
    class="window" fill="white" stroke="black" stroke-width="0.01" data-type="window" data-direction="right" /><rect x="36" y="11.8" width="10" height="0.2" 
      class="wall" fill="#000000" stroke="#000000" stroke-width="0.05" /><rect x="36" y="0" width="0.2" height="12" 
      class="wall" fill="#000000" stroke="#000000" stroke-width="0.05" /></g><g class="room" data-room="Hall"><rect x="0" y="12" width="24" height="4" 
    class="room-background" fill="#E0E0E0" stroke="none" /><rect x="0" y="12" width="24" height="0.2" 
      class="wall" fill="#000000" stroke="#000000" stroke-width="0.05" /><rect x="23.8" y="12" width="0.2" height="4" 
      class="wall" fill="#000000" stroke="#000000" stroke-width="0.05" /><rect x="0" y="15.8" width="24" height="0.2" 
      class="wall" fill="#000000" stroke="#000000" stroke-width="0.05" /><rect x="0" y="12" width="0.2" height="4" 
      class="wall" fill="#000000" stroke="#000000" stroke-width="0.05" /></g><g class="room" data-room="Bedroom2"><rect x="0" y="16" width="12" height="12" 
    class="room-background" fill="#E0E0E0" stroke="none" /><rect x="0" y="16" width="12" height="0.2" 
      class="wall" fill="#000000" stroke="#000000" stroke-width="0.05" /><rect x="11.8" y="16" width="0.2" height="12" 
      class="wall" fill="#000000" stroke="#000000" stroke-width="0.05" /><rect x="0" y="27.8" width="12" height="0.2" 
      class="wall" fill="#000000" stroke="#000000" stroke-width="0.05" /><rect x="0" y="16" width="0.2" height="12" 
      class="wall" fill="#000000" stroke="#000000" stroke-width="0.05" /></g><g class="room" data-room="HallBath"><rect x="12" y="16" width="8" height="12" 
    class="room-background" fill="#E0E0E0" stroke="none" /><rect x="12" y="16" width="8" height="0.2" 
      class="wall" fill="#000000" stroke="#000000" stroke-width="0.05" /><rect x="19.8" y="16" width="0.2" height="12" 
      class="wall" fill="#000000" stroke="#000000" stroke-width="0.05" /><rect x="12" y="27.8" width="8" height="0.2" 
      class="wall" fill="#000000" stroke="#000000" stroke-width="0.05" /><rect x="12.8" y="27.85" width="6.4" height="0.1" 
    class="window" fill="white" stroke="black" stroke-width="0.01" data-type="window" data-direction="bottom" /><rect x="12" y="16" width="0.2" height="12" 
      class="wall" fill="#000000" stroke="#000000" stroke-width="0.05" /></g><g class="room" data-room="Bedroom3"><rect x="20" y="16" width="12" height="12" 
    class="room-background" fill="#E0E0E0" stroke="none" /><rect x="20" y="16" width="12" height="0.2" 
      class="wall" fill="#000000" stroke="#000000" stroke-width="0.05" /><rect x="31.8" y="16" width="0.2" height="12" 
      class="wall" fill="#000000" stroke="#000000" stroke-width="0.05" /><rect x="20" y="27.8" width="12" height="0.2" 
      class="wall" fill="#000000" stroke="#000000" stroke-width="0.05" /><rect x="21.2" y="27.85" width="9.600000000000001" height="0.1" 
    class="window" fill="white" stroke="black" stroke-width="0.01" data-type="window" data-direction="bottom" /><rect x="20" y="16" width="0.2" height="12" 
      class="wall" fill="#000000" stroke="#000000" stroke-width="0.05" /></g><g class="room" data-room="Master"><rect x="32" y="16" width="14" height="12" 
    class="room-background" fill="#E0E0E0" stroke="none" /><rect x="32" y="16" width="14" height="0.2" 
      class="wall" fill="#000000" stroke="#000000" stroke-width="0.05" /><rect x="45.8" y="16" width="0.2" height="12" 
      class="wall" fill="#000000" stroke="#000000" stroke-width="0.05" /><rect x="45.85" y="17.2" width="0.1" height="9.600000000000001" 
    class="window" fill="white" stroke="black" stroke-width="0.01" data-type="window" data-direction="right" /><rect x="32" y="27.8" width="14" height="0.2" 
      class="wall" fill="#000000" stroke="#000000" stroke-width="0.05" /><rect x="33.4" y="27.85" width="11.200000000000001" height="0.1" 
    class="window" fill="white" stroke="black" stroke-width="0.01" data-type="window" data-direction="bottom" /><rect x="32" y="16" width="0.2" height="12" 
      class="wall" fill="#000000" stroke="#000000" stroke-width="0.05" /></g><rect x="7.8" y="3.5" width="0.2" height="5" 
      fill="white" stroke="none" class="opening" data-type="opening" data-direction="right" /><rect x="23.8" y="3.5" width="0.2" height="5" 
      fill="white" stroke="none" class="opening" data-type="opening" data-direction="right" /><path d="M 35.9 7 L 34.199999999999996 7 A 1.7 1.7 0 0 1 35.9 5" fill="white" stroke="black" stroke-width="0.05" class="door" data-type="door" data-direction="right" data-swing="default" /><path d="M 15 11.9 L 15 10.200000000000001 A 1.7 1.7 0 0 1 17 11.9" fill="white" stroke="black" stroke-width="0.05" class="door" data-type="door" data-direction="bottom" data-swing="default" /><path d="M 5 15.9 L 5 14.200000000000001 A 1.7 1.7 0 0 1 7 15.9" fill="white" stroke="black" stroke-width="0.05" class="door" data-type="door" data-direction="bottom" data-swing="default" /><rect x="15" y="15.8" width="2" height="0.2" 
      fill="white" stroke="none" class="opening" data-type="opening" data-direction="bottom" /><path d="M 11.9 23 L 10.200000000000001 23 A 1.7 1.7 0 0 1 11.9 21" fill="white" stroke="black" stroke-width="0.05" class="door" data-type="door" data-direction="right" data-swing="default" /><path d="M 31.900000000000002 23 L 30.200000000000003 23 A 1.7 1.7 0 0 1 31.900000000000002 21" fill="white" stroke="black" stroke-width="0.05" class="door" data-type="door" data-direction="right" data-swing="default" /><g class="floor-circulation" aria-label="Circulation elements"></g><g class="room-labels" aria-label="Room labels"><text x="4" y="5" text-anchor="middle" dominant-baseline="middle" 
    class="room-name" font-size="0.8" fill="black">Foyer</text><text x="4" y="6" text-anchor="middle" dominant-baseline="middle" 
      class="room-label" font-size="0.8">Foyer</text><text x="4" y="7" text-anchor="middle" dominant-baseline="middle" 
    class="room-size" font-size="0.7" fill="gray">8 x 12</text><text x="16" y="5" text-anchor="middle" dominant-baseline="middle" 
    class="room-name" font-size="0.8" fill="black">Living</text><text x="16" y="6" text-anchor="middle" dominant-baseline="middle" 
      class="room-label" font-size="0.8">Living</text><text x="16" y="7" text-anchor="middle" dominant-baseline="middle" 
    class="room-size" font-size="0.7" fill="gray">16 x 12</text><text x="30" y="5" text-anchor="middle" dominant-baseline="middle" 
    class="room-name" font-size="0.8" fill="black">Kitchen</text><text x="30" y="6" text-anchor="middle" dominant-baseline="middle" 
      class="room-label" font-size="0.8">Kitchen</text><text x="30" y="7" text-anchor="middle" dominant-baseline="middle" 
    class="room-size" font-size="0.7" fill="gray">12 x 12</text><text x="41" y="5" text-anchor="middle" dominant-baseline="middle" 
    class="room-name" font-size="0.8" fill="black">MasterBath</text><text x="41" y="6" text-anchor="middle" dominant-baseline="middle" 
      class="room-label" font-size="0.8">Ensuite</text><text x="41" y="7" text-anchor="middle" dominant-baseline="middle" 
    class="room-size" font-size="0.7" fill="gray">10 x 12</text><text x="12" y="13" text-anchor="middle" dominant-baseline="middle" 
    class="room-name" font-size="0.8" fill="black">Hall</text><text x="12" y="14" text-anchor="middle" dominant-baseline="middle" 
      class="room-label" font-size="0.8">Hall</text><text x="12" y="15" text-anchor="middle" dominant-baseline="middle" 
    class="room-size" font-size="0.7" fill="gray">24 x 4</text><text x="6" y="21" text-anchor="middle" dominant-baseline="middle" 
    class="room-name" font-size="0.8" fill="black">Bedroom2</text><text x="6" y="22" text-anchor="middle" dominant-baseline="middle" 
      class="room-label" font-size="0.8">Bedroom 2</text><text x="6" y="23" text-anchor="middle" dominant-baseline="middle" 
    class="room-size" font-size="0.7" fill="gray">12 x 12</text><text x="16" y="21" text-anchor="middle" dominant-baseline="middle" 
    class="room-name" font-size="0.8" fill="black">HallBath</text><text x="16" y="22" text-anchor="middle" dominant-baseline="middle" 
      class="room-label" font-size="0.8">Hall Bath</text><text x="16" y="23" text-anchor="middle" dominant-baseline="middle" 
    class="room-size" font-size="0.7" fill="gray">8 x 12</text><text x="26" y="21" text-anchor="middle" dominant-baseline="middle" 
    class="room-name" font-size="0.8" fill="black">Bedroom3</text><text x="26" y="22" text-anchor="middle" dominant-baseline="middle" 
      class="room-label" font-size="0.8">Bedroom 3</text><text x="26" y="23" text-anchor="middle" dominant-baseline="middle" 
    class="room-size" font-size="0.7" fill="gray">12 x 12</text><text x="39" y="21" text-anchor="middle" dominant-baseline="middle" 
    class="room-name" font-size="0.8" fill="black">Master</text><text x="39" y="22" text-anchor="middle" dominant-baseline="middle" 
      class="room-label" font-size="0.8">Master</text><text x="39" y="23" text-anchor="middle" dominant-baseline="middle" 
    class="room-size" font-size="0.7" fill="gray">14 x 12</text></g></g></svg>