<?xml version="1.0" encoding="UTF-8"?>
<svg viewBox="-2 -2 24 28" xmlns="http://www.w3.org/2000/svg" width="360" height="420" role="img" aria-roledescription="floorplan"><defs>
    <marker id="arrowhead" markerWidth="10" markerHeight="7" refX="9" refY="3.5" orient="auto">
      <polygon points="0 0, 10 3.5, 0 7" fill="#666" />
    </marker>
  </defs><style>
    /* Floor background */
    .floor-background {
      fill: #eed;
      stroke: #000;
      stroke-width: 0.1;
    }

    /* Room container */
    .room {
      /* Room styling handled by walls */
    }

    /* Wall styling */
    .wall {
      fill: #000;
      stroke: #000;
      stroke-width: 0.05;
    }

    /* Door styling */
    .door {
      fill: #fff;
      stroke: #000;
      stroke-width: 0.05;
    }

    /* Window styling */
    .window {
      fill: #fff;
      stroke: #000;
      stroke-width: 0.01;
    }

    /* Text styling */
    .room-name {
      fill: #000;
      font-family: Arial, sans-serif;
      font-size: 0.8;
    }

    .room-label {
      fill: #000;
      font-family: Arial, sans-serif;
      font-size: 0.8;
    }

    .room-size {
      fill: #666;
      font-family: Arial, sans-serif;
      font-size: 0.7;
    }
  </style><g class="floorplan" aria-label="Floor: Studio"><rect x="0" y="0" 
    width="20" height="24" 
    class="floor-background" fill="#eed" stroke="black" stroke-width="0.1" /><g class="room" data-room="Vestibule"><rect x="0" y="0" width="5" height="8" 
    class="room-background" fill="#E0E0E0" stroke="none" /><rect x="0" y="0" width="5" height="0.2" 
      class="wall" fill="#000000" stroke="#000000" stroke-width="0.05" /><path d="M 0 0.1 L 0 4.35 A 4.25 4.25 0 0 0 5 0.1" fill="white" stroke="black" stroke-width="0.05" class="door" data-type="door" data-direction="top" data-swing="default" /><rect x="4.8" y="0" width="0.2" height="8" 
      class="wall" fill="#000000" stroke="#000000" stroke-width="0.05" /><rect x="0" y="7.8" width="5" height="0.2" 
      class="wall" fill="#000000" stroke="#000000" stroke-width="0.05" /><rect x="0" y="0" width="0.2" height="8" 
      class="wall" fill="#000000" stroke="#000000" stroke-width="0.05" /></g><g class="room" data-room="Bathroom"><rect x="5" y="0" width="7" height="8" 
    class="room-background" fill="#E0E0E0" stroke="none" /><rect x="5" y="0" width="7" height="0.2" 
      class="wall" fill="#000000" stroke="#000000" stroke-width="0.05" /><rect x="11.8" y="0" width="0.2" height="8" 
      class="wall" fill="#000000" stroke="#000000" stroke-width="0.05" /><rect x="5" y="7.8" width="7" height="0.2" 
      class="wall" fill="#000000" stroke="#000000" stroke-width="0.05" /><rect x="5" y="0" width="0.2" height="8" 
      class="wall" fill="#000000" stroke="#000000" stroke-width="0.05" /></g><g class="room" data-room="Kitchen"><rect x="12" y="0" width="8" height="8" 
    class="room-background" fill="#E0E0E0" stroke="none" /><rect x="12" y="0" width="8" height="0.2" 
      class="wall" fill="#000000" stroke="#000000" stroke-width="0.05" /><rect x="19.8" y="0" width="0.2" height="8" 
      class="wall" fill="#000000" stroke="#000000" stroke-width="0.05" /><rect x="12" y="7.8" width="8" height="0.2" 
      class="wall" fill="#000000" stroke="#000000" stroke-width="0.05" /><rect x="12" y="0" width="0.2" height="8" 
      class="wall" fill="#000000" stroke="#000000" stroke-width="0.05" /></g><g class="room" data-room="SleepingArea"><rect x="0" y="8" width="20" height="16" 
    class="room-background" fill="#E0E0E0" stroke="none" /><rect x="0" y="8" width="20" height="0.2" 
      class="wall" fill="#000000" stroke="#000000" stroke-width="0.05" /><rect x="19.8" y="8" width="0.2" height="16" 
      class="wall" fill="#000000" stroke="#000000" stroke-width="0.05" /><rect x="0" y="23.8" width="20" height="0.2" 
      class="wall" fill="#000000" stroke="#000000" stroke-width="0.05" /><rect x="0" y="8" width="0.2" height="16" 
      class="wall" fill="#000000" stroke="#000000" stroke-width="0.05" /></g><path d="M 4.8999999999999995 5 L 3.1999999999999993 5 A 1.7 1.7 0 0 1 4.8999999999999995 3" fill="white" stroke="black" stroke-width="0.05" class="door" data-type="door" data-direction="right" data-swing="default" /><path d="M 1.5 7.8999999999999995 L 1.5 6.199999999999999 A 1.7 1.7 0 0 1 3.5 7.8999999999999995" fill="white" stroke="black" stroke-width="0.05" class="door" data-type="door" data-direction="bottom" data-swing="default" /><path d="M 17.4 7.8999999999999995 L 17.4 6.199999999999999 A 1.7 1.7 0 0 1 19.4 7.8999999999999995" fill="white" stroke="black" stroke-width="0.05" class="door" data-type="door" data-direction="bottom" data-swing="default" /><g class="floor-circulation" aria-label="Circulation elements"></g><g class="room-labels" aria-label="Room labels"><text x="2.5" y="3" text-anchor="middle" dominant-baseline="middle" 
    class="room-name" font-size="0.8" fill="black">Vestibule</text><text x="2.5" y="4" text-anchor="middle" dominant-baseline="middle" 
      class="room-label" font-size="0.8">Entry Vestibule</text><text x="2.5" y="5" text-anchor="middle" dominant-baseline="middle" 
    class="room-size" font-size="0.7" fill="gray">5 x 8</text><text x="8.5" y="3" text-anchor="middle" dominant-baseline="middle" 
    class="room-name" font-size="0.8" fill="black">Bathroom</text><text x="8.5" y="4" text-anchor="middle" dominant-baseline="middle" 
      class="room-label" font-size="0.8">Bathroom</text><text x="8.5" y="5" text-anchor="middle" dominant-baseline="middle" 
    class="room-size" font-size="0.7" fill="gray">7 x 8</text><text x="16" y="3" text-anchor="middle" dominant-baseline="middle" 
    class="room-name" font-size="0.8" fill="black">Kitchen</text><text x="16" y="4" text-anchor="middle" dominant-baseline="middle" 
      class="room-label" font-size="0.8">Kitchen</text><text x="16" y="5" text-anchor="middle" dominant-baseline="middle" 
    class="room-size" font-size="0.7" fill="gray">8 x 8</text><text x="10" y="15" text-anchor="middle" dominant-baseline="middle" 
    class="room-name" font-size="0.8" fill="black">SleepingArea</text><text x="10" y="16" text-anchor="middle" dominant-baseline="middle" 
      class="room-label" font-size="0.8">Sleeping / Living</text><text x="10" y="17" text-anchor="middle" dominant-baseline="middle" 
    class="room-size" font-size="0.7" fill="gray">20 x 16</text></g></g></svg>