<?xml version="1.0" encoding="UTF-8"?>
<svg viewBox="-2 -2 28 26" xmlns="http://www.w3.org/2000/svg" width="420" height="390" role="img" aria-roledescription="floorplan"><style>
    /* Floor background */
    .floor-background {
      fill: #eed;
      stroke: #000;
      stroke-width: 0.1;
    }

    /* Room container */
    .room {
      /* Room styling handled by walls */
    }

    /* Wall styling */
    .wall {
      fill: #000;
      stroke: #000;
      stroke-width: 0.05;
    }

    /* Door styling */
    .door {
      fill: #fff;
      stroke: #000;
      stroke-width: 0.05;
    }

    /* Window styling */
    .window {
      fill: #fff;
      stroke: #000;
      stroke-width: 0.01;
    }

    /* Text styling */
    .room-name {
      fill: #000;
      font-family: Arial, sans-serif;
      font-size: 0.8;
    }

    .room-label {
      fill: #000;
      font-family: Arial, sans-serif;
      font-size: 0.8;
    }

    .room-size {
      fill: #666;
      font-family: Arial, sans-serif;
      font-size: 0.7;
    }
  </style><g class="floorplan" aria-label="Floor: Demo"><rect x="0" y="0" 
    width="24" height="22" 
    class="floor-background" fill="#eed" stroke="black" stroke-width="0.1" /><g class="room" data-room="Foyer"><rect x="0" y="0" width="6" height="0.2" 
      class="wall" fill="black" stroke="black" stroke-width="0.05" /><path d="M 0 0.1 L 0 5.199999999999999 A 5.1 5.1 0 0 0 6 0.1" fill="white" stroke="black" stroke-width="0.05" class="door" data-type="door" data-direction="top" data-swing="default" /><rect x="0" y="5.8" width="6" height="0.2" 
      class="wall" fill="black" stroke="black" stroke-width="0.05" /><rect x="0" y="0" width="0.2" height="6" 
      class="wall" fill="black" stroke="black" stroke-width="0.05" /><text x="3" y="2" text-anchor="middle" dominant-baseline="middle" 
    class="room-name" font-size="0.8" fill="black">Foyer</text><text x="3" y="3" text-anchor="middle" dominant-baseline="middle" 
      class="room-label" font-size="0.8">Entry</text><text x="3" y="4" text-anchor="middle" dominant-baseline="middle" 
    class="room-size" font-size="0.7" fill="gray">6 x 6</text></g><g class="room" data-room="LivingRoom"><rect x="6" y="0" width="14" height="0.2" 
      class="wall" fill="black" stroke="black" stroke-width="0.05" /><rect x="7.3999999999999995" y="0.05" width="11.200000000000001" height="0.1" 
    class="window" fill="white" stroke="black" stroke-width="0.01" data-type="window" data-direction="top" /><rect x="19.8" y="0" width="0.2" height="12" 
      class="wall" fill="black" stroke="black" stroke-width="0.05" /><rect x="6" y="11.8" width="14" height="0.2" 
      class="wall" fill="black" stroke="black" stroke-width="0.05" /><text x="13" y="5" text-anchor="middle" dominant-baseline="middle" 
    class="room-name" font-size="0.8" fill="black">LivingRoom</text><text x="13" y="6" text-anchor="middle" dominant-baseline="middle" 
      class="room-label" font-size="0.8">Living Room</text><text x="13" y="7" text-anchor="middle" dominant-baseline="middle" 
    class="room-size" font-size="0.7" fill="gray">14 x 12</text></g><g class="room" data-room="DiningRoom"><rect x="6" y="14" width="10" height="0.2" 
      class="wall" fill="black" stroke="black" stroke-width="0.05" /><rect x="6" y="21.8" width="10" height="0.2" 
      class="wall" fill="black" stroke="black" stroke-width="0.05" /><rect x="6" y="14" width="0.2" height="8" 
      class="wall" fill="black" stroke="black" stroke-width="0.05" /><rect x="6.05" y="14.8" width="0.1" height="6.4" 
    class="window" fill="white" stroke="black" stroke-width="0.01" data-type="window" data-direction="left" /><text x="11" y="17" text-anchor="middle" dominant-baseline="middle" 
    class="room-name" font-size="0.8" fill="black">DiningRoom</text><text x="11" y="18" text-anchor="middle" dominant-baseline="middle" 
      class="room-label" font-size="0.8">Dining</text><text x="11" y="19" text-anchor="middle" dominant-baseline="middle" 
    class="room-size" font-size="0.7" fill="gray">10 x 8</text></g><g class="room" data-room="Kitchen"><rect x="16" y="14" width="8" height="0.2" 
      class="wall" fill="black" stroke="black" stroke-width="0.05" /><rect x="23.8" y="14" width="0.2" height="8" 
      class="wall" fill="black" stroke="black" stroke-width="0.05" /><rect x="16" y="21.8" width="8" height="0.2" 
      class="wall" fill="black" stroke="black" stroke-width="0.05" /><rect x="16.8" y="21.85" width="6.4" height="0.1" 
    class="window" fill="white" stroke="black" stroke-width="0.01" data-type="window" data-direction="bottom" /><text x="20" y="17" text-anchor="middle" dominant-baseline="middle" 
    class="room-name" font-size="0.8" fill="black">Kitchen</text><text x="20" y="18" text-anchor="middle" dominant-baseline="middle" 
      class="room-label" font-size="0.8">Kitchen</text><text x="20" y="19" text-anchor="middle" dominant-baseline="middle" 
    class="room-size" font-size="0.7" fill="gray">8 x 8</text></g><g class="room" data-room="Study"><rect x="0" y="6" width="6" height="0.2" 
      class="wall" fill="black" stroke="black" stroke-width="0.05" /><rect x="5.8" y="6" width="0.2" height="8" 
      class="wall" fill="black" stroke="black" stroke-width="0.05" /><rect x="0" y="13.8" width="6" height="0.2" 
      class="wall" fill="black" stroke="black" stroke-width="0.05" /><rect x="0.5999999999999996" y="13.85" width="4.800000000000001" height="0.1" 
    class="window" fill="white" stroke="black" stroke-width="0.01" data-type="window" data-direction="bottom" /><rect x="0" y="6" width="0.2" height="8" 
      class="wall" fill="black" stroke="black" stroke-width="0.05" /><text x="3" y="9" text-anchor="middle" dominant-baseline="middle" 
    class="room-name" font-size="0.8" fill="black">Study</text><text x="3" y="10" text-anchor="middle" dominant-baseline="middle" 
      class="room-label" font-size="0.8">Study</text><text x="3" y="11" text-anchor="middle" dominant-baseline="middle" 
    class="room-size" font-size="0.7" fill="gray">6 x 8</text></g><g class="room" data-room="Bathroom"><rect x="6" y="8" width="4" height="0.2" 
      class="wall" fill="black" stroke="black" stroke-width="0.05" /><rect x="9.8" y="8" width="0.2" height="4" 
      class="wall" fill="black" stroke="black" stroke-width="0.05" /><rect x="6" y="11.8" width="4" height="0.2" 
      class="wall" fill="black" stroke="black" stroke-width="0.05" /><rect x="6" y="8" width="0.2" height="4" 
      class="wall" fill="black" stroke="black" stroke-width="0.05" /><path d="M 6.1 8 L 9.5 8 A 3.4 3.4 0 0 1 6.1 12" fill="white" stroke="black" stroke-width="0.05" class="door" data-type="door" data-direction="left" data-swing="default" /><text x="8" y="9" text-anchor="middle" dominant-baseline="middle" 
    class="room-name" font-size="0.8" fill="black">Bathroom</text><text x="8" y="10" text-anchor="middle" dominant-baseline="middle" 
      class="room-label" font-size="0.8">Bath</text><text x="8" y="11" text-anchor="middle" dominant-baseline="middle" 
    class="room-size" font-size="0.7" fill="gray">4 x 4</text></g><g class="room" data-room="Closet"><rect x="21" y="13" width="3" height="0.2" 
      class="wall" fill="black" stroke="black" stroke-width="0.05" /><rect x="23.8" y="13" width="0.2" height="3" 
      class="wall" fill="black" stroke="black" stroke-width="0.05" /><rect x="21" y="15.8" width="3" height="0.2" 
      class="wall" fill="black" stroke="black" stroke-width="0.05" /><rect x="21" y="13" width="0.2" height="3" 
      class="wall" fill="black" stroke="black" stroke-width="0.05" /><path d="M 21.1 13 L 23.650000000000002 13 A 2.55 2.55 0 0 1 21.1 16" fill="white" stroke="black" stroke-width="0.05" class="door" data-type="door" data-direction="left" data-swing="default" /><text x="22.5" y="13.5" text-anchor="middle" dominant-baseline="middle" 
    class="room-name" font-size="0.8" fill="black">Closet</text><text x="22.5" y="14.5" text-anchor="middle" dominant-baseline="middle" 
      class="room-label" font-size="0.8">Storage</text><text x="22.5" y="15.5" text-anchor="middle" dominant-baseline="middle" 
    class="room-size" font-size="0.7" fill="gray">3 x 3</text></g><path d="M 8 11.9 L 8 10.200000000000001 A 1.7 1.7 0 0 1 10 11.9" fill="white" stroke="black" stroke-width="0.05" class="door" data-type="door" data-direction="bottom" data-swing="default" /><path d="M 15.9 17 L 14.200000000000001 17 A 1.7 1.7 0 0 0 15.9 19" fill="white" stroke="black" stroke-width="0.05" class="door" data-type="door" data-direction="right" data-swing="default" /><path d="M 2 5.8999999999999995 L 2 7.6 A 1.7 1.7 0 0 0 4 5.8999999999999995" fill="white" stroke="black" stroke-width="0.05" class="door" data-type="door" data-direction="top" data-swing="default" /><path d="M 5.8999999999999995 9 L 4.199999999999999 9 A 1.7 1.7 0 0 0 5.8999999999999995 11" fill="white" stroke="black" stroke-width="0.05" class="door" data-type="door" data-direction="right" data-swing="default" /></g></svg>